<?xml version="1.0" standalone="no"?>
<!DOCTYPE svg PUBLIC "-//W3C//DTD SVG 1.1//EN" "http://www.w3.org/Graphics/SVG/1.1/DTD/svg11.dtd" >
<!--
2013-9-30: Created.
-->
<svg>
<metadata>
Created by iconfont
</metadata>
<defs>

<font id="iconfont" horiz-adv-x="1024" >
  <font-face
    font-family="iconfont"
    font-weight="500"
    font-stretch="normal"
    units-per-em="1024"
    ascent="896"
    descent="-128"
  />
    <missing-glyph />
    
    <glyph glyph-name="yunduo" unicode="&#58896;" d="M754.583139 34.929926l-559.871714 0.500397c-74.787304 16.703427-131.18095 87.340207-131.18095 164.334789 0 91.427292 77.166589 165.650761 170.348576 162.583912 18.061071 143.544277 137.229961 249.174036 285.804758 249.174036 126.074443 0 239.277212-77.328179 280.155877-189.672874 92.471783-16.95516 160.629839-96.642061 160.629839-190.655248C960.468502 124.792583 866.160832 34.929926 754.583139 34.929926zM201.803227 77.64068l552.778888 0c86.924213 0 163.173882 71.738881 163.173882 153.554258 0 76.849272-58.646034 141.435243-136.395932 150.237723l-13.889904 1.583055-4.128186 13.367449c-31.180394 101.522208-131.391759 172.428118-243.659189 172.428118-133.05777 0-238.42067-99.331309-245.134857-231.030817l-1.209597-24.044626-23.734513 4.088108c-7.549239 1.292436-14.391345 1.919722-21.022641 1.919722-67.446828 0-122.340245-53.828976-122.340245-119.979582C106.241956 143.977527 148.03754 90.799374 201.803227 77.64068z"  horiz-adv-x="1024" />

    
    <glyph glyph-name="68" unicode="&#58979;" d="M700.112 262.648C766.639 311.466 810 389.968 810 478.8 810 626.927 689.927 747 541.801 747 393.673 747 273.6 626.927 273.6 478.8c0-88.833 43.361-167.334 109.888-216.152C198.009 201.447 65 47.82 65-147l29.8 0c0 189.611 136.268 337.957 322.168 388.521 37.309-19.673 79.738-30.92 124.832-30.92 45.092 0 87.522 11.247 124.83 30.92C678.374 247.705 689.49 254.85 700.112 262.648zM615.937 252.347c-23.368-7.654-48.251-11.946-74.136-11.946-25.887 0-50.769 4.292-74.137 11.946-16.37 5.384-31.896 12.571-46.504 21.186C350.836 315.031 303.4 391.394 303.4 478.8c0 131.452 106.949 238.4 238.401 238.4C673.252 717.2 780.2 610.252 780.2 478.8c0-87.407-47.436-163.769-117.76-205.268C647.832 264.918 632.306 257.73 615.937 252.347zM809.985 31.8 809.985 180.8 780.186 180.8 780.186 31.8 631.2 31.8 631.2 2 780.186 2 780.186-147 809.985-147 809.985 2 959 2 959 31.8Z"  horiz-adv-x="1024" />

    
    <glyph glyph-name="yuleyinlediantai" unicode="&#59720;" d="M876.547502 78.192014C916.962119 144.482051 938.666667 220.681099 938.666667 300 938.666667 535.641493 747.641492 726.666667 512 726.666667 276.358507 726.666667 85.333333 535.641493 85.333333 300 85.333333 224.704168 104.88777 152.189759 141.514484 88.238558 149.321906 74.606595 166.701963 69.884871 180.333926 77.692294 193.96589 85.499716 198.687614 102.879772 190.880191 116.511735 159.151077 171.9116 142.222222 234.689471 142.222222 300 142.222222 504.222628 307.777372 669.777778 512 669.777778 716.222626 669.777778 881.777778 504.222628 881.777778 300 881.777778 231.203209 862.988029 165.237259 827.973988 107.805514 819.796446 94.392309 824.040789 76.889549 837.453995 68.712007 850.8672 60.534465 868.36996 64.778809 876.547502 78.192014ZM730.721468 179.43831C754.972803 219.216538 768 264.951657 768 312.531482 768 453.916377 653.384895 568.531481 512 568.531481 370.615105 568.531481 256 453.916377 256 312.531482 256 267.365584 267.736589 223.842378 289.715625 185.466405 297.523047 171.834442 314.903104 167.112718 328.535067 174.920141 342.167031 182.727563 346.888755 200.10762 339.081333 213.739583 321.999896 243.56422 312.888889 277.350886 312.888889 312.531482 312.888889 422.49751 402.033971 511.642592 512 511.642592 621.966029 511.642592 711.111111 422.49751 711.111111 312.531482 711.111111 275.473766 700.99871 239.971746 682.147954 209.05181 673.970412 195.638605 678.214756 178.135845 691.627961 169.958303 705.041166 161.780762 722.543926 166.025105 730.721468 179.43831ZM455.111111-126.666667C502.239408-126.666667 540.444444-94.829138 540.444444-55.555556 540.444444-16.281973 502.239408 15.555556 455.111111 15.555556 407.982814 15.555556 369.777778-16.281973 369.777778-55.555556 369.777778-94.829138 407.982814-126.666667 455.111111-126.666667ZM449.094531 61.138315C375.586637 61.138315 313.618576 12.609675 313.618576-51.125015 313.618576-114.859702 375.586637-163.388342 449.094531-163.388342 522.602425-163.388342 584.570487-114.859702 584.570487-51.125015 584.570487 12.609675 522.602425 61.138315 449.094531 61.138315L449.094531 61.138315ZM449.094531 4.249426C493.810378 4.249426 527.681599-22.27592 527.681599-51.125015 527.681599-79.974107 493.810378-106.499453 449.094531-106.499453 404.378684-106.499453 370.507466-79.974107 370.507466-51.125015 370.507466-22.27592 404.378684 4.249426 449.094531 4.249426L449.094531 4.249426ZM584.617298-33.407414 593.966783 283.56443C594.429952 299.267032 582.07595 312.371979 566.373345 312.835149 550.67074 313.298315 537.565793 300.944313 537.102626 285.241711L527.753139-31.730136C527.289973-47.432738 539.643975-60.537685 555.34658-61.000855 571.049182-61.464021 584.154129-49.110019 584.617298-33.407414L584.617298-33.407414ZM637.368971 334.119305C622.799889 331.97093 610.099769 329.279283 598.127511 325.977876 588.768458 323.397072 566.74281 315.973177 563.68714 315.230211 548.422446 311.518692 539.056748 296.13543 542.768267 280.870736 546.479787 265.606039 561.863046 256.240341 577.127743 259.951861 583.144257 261.414738 606.295731 269.218102 613.250449 271.1359 622.999646 273.824287 633.422174 276.033223 645.668133 277.839027 661.209503 280.130779 671.950441 294.587378 669.658689 310.128748 667.36694 325.670116 652.910342 336.411056 637.368971 334.119305L637.368971 334.119305Z"  horiz-adv-x="1024" />

    
    <glyph glyph-name="119" unicode="&#58936;" d="M755.2 422.88c-33.28 0-61.44-28.16-61.44-61.44 0-33.28 28.16-61.44 61.44-61.44 33.28 0 61.44 28.16 61.44 61.44C816.64 394.72 788.48 422.88 755.2 422.88L755.2 422.88 755.2 422.88zM512-4.64c-35.84 0-69.12 5.12-102.4 10.24l-143.36-87.04 2.56 140.8c-110.08 66.56-181.76 174.08-181.76 299.52C87.04 561.12 276.48 724.96 512 724.96c235.52 0 424.96-163.84 424.96-363.52C936.96 159.2 747.52-4.64 512-4.64L512-4.64 512-4.64zM512 786.4C243.2 786.4 25.6 596.96 25.6 361.44c0-133.12 71.68-253.44 181.76-332.8L207.36-186.4l212.48 130.56c30.72-5.12 58.88-7.68 92.16-7.68 268.8 0 486.4 189.44 486.4 424.96C998.4 596.96 780.8 786.4 512 786.4L512 786.4 512 786.4zM268.8 422.88c-33.28 0-61.44-28.16-61.44-61.44 0-33.28 28.16-61.44 61.44-61.44 33.28 0 61.44 28.16 61.44 61.44C330.24 394.72 302.08 422.88 268.8 422.88L268.8 422.88 268.8 422.88zM512 422.88c-33.28 0-61.44-28.16-61.44-61.44 0-33.28 28.16-61.44 61.44-61.44 33.28 0 61.44 28.16 61.44 61.44C573.44 394.72 545.28 422.88 512 422.88L512 422.88 512 422.88zM512 422.88"  horiz-adv-x="1024" />

    
    <glyph glyph-name="xiazai" unicode="&#58977;" d="M526.50076-130.951079c-247.230778 0-447.669856 200.416566-447.669856 447.669856 0 247.252267 200.439078 447.669856 447.669856 447.669856s447.669856-200.416566 447.669856-447.669856S773.731538-130.951079 526.50076-130.951079L526.50076-130.951079zM526.50076 723.161672c-224.471424 0-406.441872-181.971471-406.441872-406.442896S302.029336-89.725142 526.50076-89.725142 932.943656 92.247352 932.943656 316.717753 750.972185 723.161672 526.50076 723.161672L526.50076 723.161672zM548.365744 90.426891c-23.23826-23.216771-32.222889-9.200546-41.422412 0L327.470775 269.919914c-30.645974 30.645974 5.874801 56.735166 30.322609 32.265868l149.149948-156.535149L506.943332 532.215806c0 44.035936 41.422412 39.983643 41.422412 0l0-386.565173 149.148925 156.535149c23.843034 23.864524 66.756403 4.167926 30.322609-32.265868L548.365744 90.426891 548.365744 90.426891z"  horiz-adv-x="1024" />

    
    <glyph glyph-name="diantai" unicode="&#59124;" d="M879.232 180.60799999999995c40.64 66.752 62.528 143.488 62.528 223.36 0 237.312-192.384 429.76-429.76 429.76-237.312 0-429.696-192.384-429.696-429.76 0-75.84 19.712-148.864 56.576-213.248 7.936-13.76 25.344-18.496 39.104-10.624 13.696 7.808 18.496 25.344 10.624 39.04-32 55.744-49.024 119.04-49.024 184.832 0 205.632 166.784 372.416 372.416 372.416 205.76 0 372.352-166.784 372.352-372.416 0-69.312-18.88-135.744-54.144-193.536-8.256-13.504-4.032-31.104 9.472-39.424C853.248 162.81600000000003 870.848 167.10400000000004 879.232 180.60799999999995zM732.224 282.55999999999995c24.512 40.064 37.632 86.144 37.632 134.08 0 142.464-115.392 257.856-257.856 257.856-142.4 0-257.792-115.392-257.792-257.856 0-45.504 11.84-89.344 33.92-128 7.872-13.76 25.344-18.432 39.104-10.56 13.76 7.808 18.496 25.344 10.688 39.04C320.64 347.20000000000005 311.424 381.18399999999997 311.424 416.64 311.424 527.424 401.28 617.152 512 617.152s200.512-89.728 200.512-200.512c0-37.312-10.112-73.152-29.12-104.256-8.256-13.504-4.032-31.104 9.472-39.36C706.496 264.76800000000003 724.096 269.05600000000004 732.224 282.55999999999995zM678.144 244.48000000000002c-1.984 9.792-6.976 19.392-15.488 28.544C654.144 282.55999999999995 646.4 289.472 639.36 293.76S625.28 301.63199999999995 618.112 304.576C611.008 307.58399999999995 603.264 310.84799999999996 595.008 314.432c-8.384 3.52-17.92 9.344-28.992 17.472C553.152 340.672 542.912 349.696 535.36 358.91200000000003 527.808 368.06399999999996 521.472 376.256 516.288 383.48800000000006 511.36 390.528 501.312 405.44 496.448 409.536l0-0.448C492.544 413.952 486.72 417.216 479.936 417.216c-12.032 0-21.696-9.6-21.696-21.504l0-308.352c-19.2 11.712-43.136 18.88-69.632 18.88-62.144 0-112.576-38.528-112.576-86.016s50.432-85.952 112.576-85.952c62.144 0 112.512 38.464 112.512 85.952 0 0 0.512 9.408 0.512 10.304l0 274.56c0.576 4.864 2.368 6.336 4.224 7.104C510.336 314.304 516.48 311.67999999999995 524.608 304.256c8.384-8.448 19.008-17.536 31.68-27.264 12.736-9.728 27.264-16.192 43.968-19.328 15.744-2.88 27.392-7.552 35.008-14.08 7.488-6.592 12.224-16.768 14.016-30.528 1.152-8.576 2.752-14.4 4.736-17.472 1.984-3.2 4.224-4.928 6.848-5.312 2.624-0.32 5.76 2.048 9.344 7.168s6.4 11.84 7.872 19.904C680 225.47199999999998 679.872 234.49599999999998 678.144 244.48000000000002z"  horiz-adv-x="1024" />

    
    <glyph glyph-name="icons64x6441" unicode="&#58990;" d="M528 263.648c-72.768 0-131.968 59.2-131.968 131.984L396.032 604.928c0 72.768 59.2 131.968 131.968 131.968s131.968-59.2 131.968-131.968l0-209.296C659.968 322.848 600.768 263.648 528 263.648zM528 704.896c-55.12 0-99.968-44.848-99.968-99.968l0-209.296c0-55.12 44.848-99.984 99.968-99.984s99.968 44.864 99.968 99.984L627.968 604.928C627.968 660.048 583.12 704.896 528 704.896zM784 412 784 416c0 8.848-7.152 16-16 16s-16-7.152-16-16l0-3.312C752 291.312 655.136 192 533.76 192l-13.536 0C402.16 192 304 287.712 304 405.776L304 416c0 8.848-7.152 16-16 16s-16-7.152-16-16l0-6.224c0-134.656 112-244.112 240-249.28L512 48l-159.248 0c-8.8 0-16-7.2-16-16s7.2-16 16-16L708.16 16c8.8 0 16 7.2 16 16s-7.2 16-16 16L544 48l0 112.608C672 166.976 784 277.456 784 412z"  horiz-adv-x="1024" />

    
    <glyph glyph-name="guanyu-copy" unicode="&#58901;" d="M607.876 839.134c-251.335 0-455.134-203.798-455.134-455.134s203.776-455.134 455.134-455.134 455.134 203.798 455.134 455.134c0 251.335-203.798 455.134-455.134 455.134zM607.876-25.622c-225.849 0-409.622 183.774-409.622 409.622s183.774 409.622 409.622 409.622 409.622-183.774 409.622-409.622-183.774-409.622-409.622-409.622zM679.306 671.13c-17.021 12.47-42.781 4.915-57.549-16.884-14.791-21.777-12.948-49.562 4.050-62.077 16.976-12.47 42.781-4.915 57.549 16.884 14.791 21.799 12.971 49.584-4.050 62.077zM629.494 165.342c0 0-58.209-54.021-43.737 14.222 0 0 4.596 29.901 20.502 92.433 12.72 49.994 33.473 120.65 58.778 214.721 0 0 13.244 47.377-42.394 38.412-24.076-3.891-53.589-20.025-77.915-38.412-31.835-24.052-56.457-52.087-64.261-62.555l19.137-17.089c0 0 107.884 119.398 80.669 19.911-27.261-99.465-71.111-246.124-69.723-305.744 1.343-59.643 75.207-24.189 75.207-24.189s19.843 12.675 42.371 31.312c29.787 24.598 64.261 58.3 64.261 58.3l-17.749 18.5-45.147-39.822z"  horiz-adv-x="1195" />

    
    <glyph glyph-name="xiaobing" unicode="&#58932;" d="M694.976 551.296c0 28.224 1.344 79.616-31.872 79.616L583.488 630.912c-54.656 0-100.352 38.528-97.6 91.008 0.384 7.36-5.76 12.544-12.224 12.544-88.256-11.264-144.96-85.248-144.96-179.392l0-178.56c0-100.032-2.816-183.68 95.488-183.68l23.872 0 0-103.552c0-30.592 26.496-55.744 58.304-55.744l8.512 0c31.808 0 60.608 25.152 60.608 55.744l0 103.552c0 0 26.88-0.448 31.872 0 98.24 0.064 87.616 83.136 87.616 183.168L694.976 551.296z"  horiz-adv-x="1024" />

    
    <glyph glyph-name="toutiaofenxiang" unicode="&#59236;" d="M64.012 383.975c0-247.41 200.59-447.964 448.008-447.964 247.416 0 447.968 200.554 447.968 447.964h64.012c0-282.762-229.215-511.975-511.98-511.975-282.76 0-512.020 229.213-512.020 511.975 0 282.756 229.26 512.025 512.020 512.025v-64.023c-247.418 0-448.008-200.588-448.008-448.002v0zM964.774 825.577v6.4h-6.4l6.4-6.4zM1007.987 575.97h-31.992c-8.85 0-16.007 7.158-16.007 16.012v192.214l-443.206-443.163c-6.589-6.628-17.275-6.628-23.92 0l-23.918 23.918c-6.578 6.589-6.578 17.286 0 23.908l443.177 443.123h-192.132c-8.82 0-15.978 7.152-15.978 16.018v31.981c0 8.86 7.158 16.018 15.978 16.018h287.997c8.855 0 16.013-7.158 16.013-16.018v-287.999c0-8.855-7.158-16.012-16.013-16.012v0z"  horiz-adv-x="1024" />

    
    <glyph glyph-name="wangyiyunyinlezizhi-copy" unicode="&#58881;" d="M812.688 452.365c-53.338 53.338-122.877 84.571-197.517 89.152-4.864 13.476-9.237 28.122-12.955 44.445-5.406 23.756-9.41 51.082-11.482 83.564-0.506 7.925-0.895 16.16-1.163 24.724-0.258 8.306-0.402 16.927-0.421 25.875-0.031 0.003-0.059 0.006-0.090 0.013 0.023 0.226 0.061 0.45 0.087 0.678 5.899 51.69 50.605 91.766 104.187 90.233 37.757-1.079 70.706-23.047 87.364-54.811l50.365 9.678c-19.821 49.354-64.973 85.924-119.381 93.387-87.442 11.994-163.263-51.161-172.043-134.026-0.073-0.693-0.119-2.478-0.146-3.174l-0.001-6.676c0.018-5.903 0.16-15.092 0.539-25.67 0.183-5.153 0.419-10.23 0.693-15.251 2.775-50.809 10.176-94.917 22.415-133.85 0.030-0.090 0.057-0.177 0.086-0.268-27.769-2.932-54.72-9.59-80.274-19.713l-0.018-0.002-0.034-0.017c-38.362-15.204-73.57-38.233-103.627-68.291l9.538 8.534c-40.682-39.699-65.986-95.088-65.986-156.285 0-29.763 5.99-58.148 16.817-84.031 25.825-61.738 79.205-109.18 144.684-126.881 17.221-5.375 35.525-8.272 54.494-8.272 10.11 0 20.029 0.837 29.698 2.419 86.973 14.235 153.556 89.901 153.556 180.838 0 20.773-3.481 40.749-9.879 59.378-13.142 54.395-34.294 91.456-54.922 127.561-6.288 11.010-12.514 21.913-18.499 33.241 10.198-1.718 20.194-4.039 29.951-6.925 106.276-31.444 184.048-129.946 184.048-246.284 0-59.882-20.607-115.040-55.097-158.762-24.484-27.394-53.099-51.013-84.861-69.881-53.554-31.809-116.031-50.11-182.708-50.11-27.403 0-54.094 3.1-79.754 8.944-159.635 36.365-279.132 179.455-279.132 349.94 0 177.598 129.68 325.454 299.316 353.913l-6.546 49.329c-83.813-13.561-161.087-52.819-222.371-113.935-76.53-76.319-119.827-180.26-120.076-288.341-0.253-109.839 42.541-213.123 120.404-290.601 77.532-77.148 183.19-120.052 292.559-118.903 72.921 0.765 142.794 20.532 203.967 56.93 27.007 14.218 52.015 32.573 74.211 54.769 8.033 8.033 15.546 16.446 22.559 25.174 43.538 54.177 67.203 121.031 67.203 191.533 0 31.259-4.661 61.796-13.632 90.835-14.522 47.012-40.351 90.090-76.132 125.871zM403.266 473.834c0.771 0.633 1.557 1.249 2.338 1.872-0.835-0.662-1.665-1.331-2.491-2.006l0.151 0.134zM664.427 314.149c3.326-14.137 6.031-29.586 7.954-46.765-0.627-65.317-48.367-119.567-110.8-130.331-6.657-0.801-13.428-1.225-20.295-1.225-14.779 0-29.116 1.916-42.786 5.5-72.415 18.99-125.996 84.994-125.996 163.282 0 22.391 4.393 43.772 12.346 63.341 10.096 24.843 25.936 46.761 45.873 64.083 3.514 2.963 7.102 5.837 10.773 8.609 39.492 29.837 87.838 48.543 140.336 51.408 4.418-9.674 8.997-18.804 13.654-27.585 4.962-9.356 10.011-18.32 15.036-27.143 1.209-2.122 2.416-4.235 3.62-6.343 19.814-34.679 38.772-67.897 50.285-116.832z"  horiz-adv-x="1024" />

    
    <glyph glyph-name="wodeshoucang" unicode="&#58975;" d="M915.2 169.6c-6.4 22.4-28.8 41.6-51.2 44.8l-48 6.4c-6.4 0-12.8 6.4-16 9.6l-22.4 44.8c-9.6 22.4-32 35.2-57.6 35.2-25.6 0-48-12.8-57.6-35.2L640 233.6c-3.2-6.4-9.6-9.6-16-9.6l-48-6.4c-25.6-3.2-44.8-19.2-51.2-44.8-6.4-22.4 0-48 16-67.2l35.2-35.2c3.2-3.2 6.4-9.6 6.4-16L576 6.4c-3.2-25.6 6.4-48 25.6-64 19.2-16 44.8-16 67.2-6.4l38.4 19.2c9.6 3.2 19.2 3.2 25.6 0l38.4-19.2c9.6-6.4 19.2-6.4 28.8-6.4 12.8 0 25.6 3.2 38.4 12.8 19.2 16 28.8 38.4 25.6 64l-6.4 41.6c-3.2 9.6 0 19.2 9.6 25.6l32 32C915.2 121.6 921.6 147.2 915.2 169.6zM873.6 131.2l-32-32c-16-16-22.4-35.2-19.2-57.6L832 0c3.2-9.6-3.2-22.4-12.8-28.8-9.6-6.4-19.2-6.4-28.8-3.2l-38.4 19.2c-9.6 6.4-19.2 6.4-28.8 6.4s-19.2-3.2-28.8-6.4L652.8-32c-9.6-6.4-22.4-3.2-28.8 3.2-9.6 6.4-12.8 16-12.8 28.8l9.6 48c3.2 19.2-3.2 35.2-16 48l-35.2 35.2c-9.6 6.4-9.6 19.2-6.4 28.8 3.2 9.6 12.8 19.2 22.4 19.2l48 6.4c19.2 3.2 32 12.8 41.6 28.8l22.4 44.8c6.4 9.6 16 16 25.6 16 9.6 0 22.4-6.4 25.6-16l22.4-44.8c6.4-16 22.4-28.8 41.6-28.8l48-6.4c9.6-3.2 19.2-9.6 22.4-19.2C883.2 150.4 880 137.6 873.6 131.2zM793.6 579.2c0 150.4-121.6 272-272 272-150.4 0-272-121.6-272-272 0-105.6 60.8-198.4 150.4-243.2-166.4-51.2-297.6-198.4-297.6-352 0-12.8 9.6-25.6 25.6-25.6 12.8 0 25.6 9.6 25.6 25.6 0 163.2 185.6 323.2 371.2 323.2C672 307.2 793.6 428.8 793.6 579.2zM521.6 355.2c-124.8 0-224 99.2-224 224s99.2 224 224 224 224-99.2 224-224S643.2 355.2 521.6 355.2z"  horiz-adv-x="1024" />

    
    <glyph glyph-name="youhuiquan1" unicode="&#59138;" d="M149.056 618.72l27.008 0 0-94.656-27.008 0L149.056 618.72zM354.432 495.584l276.672 0 0-25.792L354.432 469.792 354.432 495.584zM354.432 272.352l276.672 0 0-25.855L354.432 246.497 354.432 272.352zM149.056 418.72l27.008 0 0-94.655-27.008 0L149.056 418.72zM149.056 220.384l27.008 0 0-94.656-27.008 0L149.056 220.384zM972.8 730.528L51.2 730.528c-28.225 0-51.2-22.912-51.2-51.2l0-601.601c0-28.224 22.912-51.264 51.2-51.264l921.6 0c28.224 0 51.2 22.977 51.2 51.264l0 76.736L867.776 154.463c-14.144 0-25.536 11.521-25.536 25.601l0 1.279c0 14.145 11.456 25.601 25.536 25.601L1024 206.944 1024 352.288 870.079 352.288c-14.144 0-25.6 11.52-25.6 25.6l0 1.28c0 14.208 11.521 25.6 25.6 25.6L1024 404.768 1024 549.856 867.776 549.856c-14.144 0-25.536 11.52-25.536 25.6l0 1.28c0 14.208 11.456 25.6 25.536 25.6L1024 602.336l0 76.992C1024 707.616 1001.088 730.528 972.8 730.528zM868.287 631.072c-30.399 0-54.976-24.64-54.976-54.976 0-30.336 24.64-54.976 54.976-54.976l126.849 0 0-87.552L868.287 433.568c-30.399 0-54.976-24.641-54.976-54.977s24.64-54.976 54.976-54.976l126.849 0 0-87.809L868.287 235.806c-30.399 0-54.976-24.64-54.976-54.976s24.64-54.976 54.976-54.976l126.849 0 0-44.864c0-14.145-11.521-25.473-25.601-25.473L54.4 55.517c-14.144 0-25.6 11.393-25.6 25.473L28.8 676.128c0 14.144 11.456 25.6 25.6 25.6l915.2 0c14.144 0 25.6-11.456 25.6-25.6l0-45.056L868.287 631.072 868.287 631.072z"  horiz-adv-x="1024" />

    
    <glyph glyph-name="shipin" unicode="&#59013;" d="M512.126-64.126c-247.414 0-447.998 200.584-447.998 447.996 0 247.416 200.584 448.002 447.998 448.002 247.416 0 448.002-200.586 448.002-448.002-0.001-247.414-200.587-447.996-448.002-447.996z m0 851.19c-222.677 0-403.192-180.516-403.192-403.194 0-222.68 180.517-403.192 403.192-403.192 222.679 0 403.194 180.514 403.194 403.192S734.804 787.064 512.126 787.064z m169.672-416.962c-12.631-7.317-219.04-124.129-233.975-132.249-10.96-5.947-25.295 0.624-25.295 14.154V516.419c0 12.304 12.991 21.445 25.833 14.242 10.276-5.763 215.877-122.002 233.437-131.914 11.501-6.54 11.32-22.102 0-28.645z"  horiz-adv-x="1024" />

    
    <glyph glyph-name="fuwu" unicode="&#58908;" d="M1236.628095 486.76886a263.208634 263.208634 0 0 1-80.987272 59.206604L1083.24311 745.682715c-19.019738 61.353994-75.158643 150.317285-175.472422 150.317285H374.29771c-100.31378 0-156.452685-88.042981-175.472423-150.317285l-72.397713-199.707251a263.208634 263.208634 0 0 1-80.987272-59.206604 193.878621 193.878621 0 0 1-45.095185-122.707988v-206.762959a49.389965 49.389965 0 0 1 33.744697-52.764435V-24.309909999999945a102.1544 102.1544 0 0 1 102.154399-102.46117h70.863864A102.1544 102.1544 0 0 1 308.955707-24.309909999999945v57.979525s214.738979-18.406198 331.311567-18.406198 331.311567 18.406198 331.311567 18.406198V-24.309909999999945A102.1544 102.1544 0 0 1 1074.040011-127.99815899999999h71.170633A102.1544 102.1544 0 0 1 1247.978584-24.309909999999945v128.843388a49.389965 49.389965 0 0 1 33.744697 53.071205v206.762959a193.878621 193.878621 0 0 1-45.095186 122.401218zM248.215252 727.8900570000001C261.713131 773.292012 303.127077 834.6460059999999 372.15032 834.6460059999999h537.767757c69.023243 0 110.130419-61.353994 122.707988-106.14241l66.875854-180.073972h-920.30991zM215.084096-72.47279500000002H129.188504a39.880096 39.880096 0 0 0-40.186866 40.493636v117.186129c8.282789-2.76093 165.655784-39.880096 165.655784-39.880096v-76.999263A40.493636 40.493636 0 0 0 215.084096-72.47279500000002z m978.596204 40.493636a39.880096 39.880096 0 0 0-40.186866-40.493636h-85.895592a40.493636 40.493636 0 0 0-40.186866 40.800406v76.999263s157.372995 37.119166 165.655784 39.880096zM1227.424996 159.752072s-198.173401-81.907582-586.850952-81.907582S54.336632 159.752072 54.336632 159.752072v205.22911c0 37.732706 43.561336 122.707988 118.106438 122.707988h937.182258c74.545103 0 118.413208-86.202362 118.106438-122.707988C1227.424996 338.292195 1227.424996 159.752072 1227.424996 159.752072zM301.593227 295.651169m-63.808153 0a63.808154 63.808154 0 1 1 127.616307 0 63.808154 63.808154 0 1 1-127.616307 0ZM980.475171 295.651169m-63.808154 0a63.808154 63.808154 0 1 1 127.616307 0 63.808154 63.808154 0 1 1-127.616307 0Z"  horiz-adv-x="1282" />

    
    <glyph glyph-name="icon-test" unicode="&#58900;" d="M707.1 390.3H547.9V646.2c0 1.1-0.9 2-2 2h-60.5c-1.1 0-2-0.9-2-2v-318.3c0-1.1 0.9-2 2-2H707c1.1 0 2 0.9 2 2v60.5c0.1 1-0.8 1.9-1.9 1.9zM804.2 60.5C882.4 136.7 931 243 931 360.5c0 95-31.8 182.7-85.3 253.1 23.6 24 36.9 56.1 36.9 90.3 0 71.1-57.8 128.9-128.9 128.9-50.4 0-94.9-28.8-116-72.6-39.7 12.5-81.9 19.3-125.7 19.3s-86-6.8-125.7-19.3c-21.1 43.5-65.6 72.6-116 72.6-71.1 0-128.9-57.8-128.9-128.9 0-34.3 13.6-66.6 36.9-90.3C124.8 543.3 93 455.5 93 360.5c0-110.5 43-211.1 113.1-286.1l-93.2-93.2c-0.8-0.8-0.8-2.1 0-2.8l42.8-42.8c0.8-0.8 2.1-0.8 2.8 0l95.2 95.2c71.2-55.9 161-89.3 258.3-89.3 90.3 0 174 28.7 242.5 77.5l83.3-83.3c0.8-0.8 2.1-0.8 2.8 0l42.8 42.8c0.8 0.8 0.8 2.1 0 2.8l-79.2 79.2z m-50.5 707.9c35.5 0 64.5-28.9 64.5-64.5 0-15.6-5.6-30.3-15.5-41.9-30.8 29.7-66.2 54.8-104.9 74 11.2 19.7 32.3 32.4 55.9 32.4z m-483.4 0c23.7 0 44.7-12.8 55.9-32.3-38.7-19.2-74.1-44.3-104.9-74-9.8 11.5-15.5 26.3-15.5 41.9 0 35.5 28.9 64.4 64.5 64.4zM157.5 360.5C157.5 556 316.5 715 512 715s354.5-159 354.5-354.5S707.5 6 512 6 157.5 165.1 157.5 360.5z"  horiz-adv-x="1024" />

    
    <glyph glyph-name="tuijian" unicode="&#58920;" d="M515.8784-50.50879999999995C273.344-50.50879999999995 76.032 146.81600000000003 76.032 389.3376c0 242.5344 197.3248 439.8592 439.8592 439.8592 173.0304 0 439.8592-188.8768 439.8592-439.8592-0.0128-242.5216-197.3248-439.8464-439.872-439.8464z m0 841.3056C294.528 790.7968 114.432 610.7008000000001 114.432 389.3376s180.096-401.4464 401.4592-401.4464 401.4592 180.0832 401.4592 401.4464C917.3376 610.944 674.4192 790.7968 515.8784 790.7968z m-0.0128-598.2464a42.176 42.176 0 0 0-25.0752 8.2048c-4.2368 3.0592-106.9824 77.6448-149.568 140.5056-14.4256 21.3248-34.2016 50.5216-34.2016 92.544 0 71.104 56.4608 128.96 125.8624 128.96a123.52 123.52 0 0 0 82.9696-31.9872 123.4944 123.4944 0 0 0 82.9568 31.9872c69.376 0 125.8624-57.8432 125.9136-128.9472 0-42.0224-19.7888-71.232-34.2528-92.5568C647.8976 278.4 545.152 203.82719999999995 540.8 200.6784a41.8944 41.8944 0 0 0-24.9344-8.128zM432.896 524.3648000000001c-48.2304 0-87.4624-40.6272-87.4624-90.56 0-30.2464 14.6688-51.9168 27.5968-71.0144 32.2048-47.5392 112.2432-110.6688 140.3648-130.9824 1.9456-1.4208 3.072-1.3568 4.8256-0.0768 28.2368 20.3904 108.2752 83.52 140.48 131.072 12.9664 19.1232 27.648 40.7808 27.648 71.0144-0.0384 49.92-39.296 90.56-87.5136 90.56-26.3936 0-51.136-12.1984-67.8656-33.472l-15.0912-19.1872-15.0912 19.1872c-16.7424 21.2608-41.4848 33.4592-67.8912 33.4592z"  horiz-adv-x="1024" />

    
    <glyph glyph-name="suijibofang" unicode="&#58905;" d="M774.4 166.4h-102.4c-12.8 0-25.6 6.4-38.4 12.8-12.8 6.4-19.2 12.8-25.6 25.6l-76.8 128-32-44.8 64-108.8c12.8-19.2 25.6-32 44.8-44.8s38.4-19.2 57.6-19.2H768v-70.4l140.8 96-140.8 96v-70.4h6.4zM633.6 588.8c12.8 6.4 25.6 12.8 38.4 12.8h102.4v-70.4l140.8 96-140.8 96v-70.4h-102.4c-19.2 0-44.8-6.4-57.6-19.2-25.6-12.8-38.4-25.6-51.2-44.8l-217.6-384c-6.4-12.8-19.2-19.2-25.6-25.6-12.8-6.4-25.6-12.8-38.4-12.8H147.2v-44.8h134.4c19.2 0 44.8 6.4 57.6 19.2 19.2 12.8 32 25.6 44.8 44.8l217.6 384c12.8 6.4 19.2 12.8 32 19.2zM320 588.8c6.4-6.4 19.2-12.8 25.6-25.6l76.8-134.4 25.6 51.2-64 108.8c-6.4 19.2-25.6 32-44.8 44.8-12.8 6.4-38.4 12.8-57.6 12.8H147.2v-44.8h134.4c12.8 0 25.6-6.4 38.4-12.8z"  horiz-adv-x="1024" />

    
    <glyph glyph-name="sanjiaoxing" unicode="&#59346;" d="M211.578278 834.170816h6.184863c15.134699-18.486026 33.793664-33.4396 53.955866-46.007846 178.245613-131.88268 353.216647-268.464381 532.524452-398.853034v-3.446495C605.213473 239.555214 409.3629 88.83142 211.578278-59.24815V834.170816z m17.863856-35.469839c-0.171915-274.131451-0.440022-548.348859 0.085958-822.480311 181.50996 137.367601 363.556133 274.04447 545.256428 411.154198C593.084225 524.570549 410.952094 661.31598 229.442134 798.700977z"  horiz-adv-x="1024" />

    
    <glyph glyph-name="search" unicode="&#59358;" d="M680 451.2c0 129.6-105.6 236.8-236.8 236.8S208 580.8 208 451.2s105.6-236.8 236.8-236.8c59.2 0 113.6 22.4 155.2 59.2l211.2-211.2 22.4 22.4-211.2 211.2c35.2 41.6 57.6 96 57.6 155.2zM444.8 656c112 0 204.8-91.2 204.8-204.8s-91.2-204.8-204.8-204.8S240 339.20000000000005 240 451.2 331.2 656 444.8 656z"  horiz-adv-x="1024" />

    
    <glyph glyph-name="gedan" unicode="&#58880;" d="M959.36 175.74400000000003c4.032-90.56-58.176-192.064-164.864-253.056-138.944-79.488-300.352-65.536-360.512 43.072-57.92 104.512 3.712 251.392 142.656 330.944 112.192 64.192 238.08 62.976 314.432 6.208V861.824C891.072 880.704 906.496 896 925.568 896 944.576 896 960 880.704 960 861.824v-683.008c0-1.088-0.512-1.984-0.64-3.072z m-79.872 52.864c-48.128 73.024-180.032 75.584-282.624 14.208-102.592-61.376-151.872-177.984-103.68-251.008 48.128-73.024 175.488-74.88 278.08-13.504C873.856 39.67999999999995 927.68 155.51999999999998 879.488 228.60799999999995zM718.784 588.672H98.432C79.424 588.672 64 603.9680000000001 64 622.784c0 18.88 15.424 34.176 34.432 34.176H718.72c19.008 0 34.432-15.296 34.432-34.176 0.064-18.816-15.36-34.112-34.368-34.112z m0 204.864H98.432C79.424 793.5360000000001 64 808.832 64 827.712c0 18.88 15.424 34.176 34.432 34.176H718.72c19.008 0 34.432-15.296 34.432-34.176 0.064-18.88-15.36-34.176-34.368-34.176zM98.432 452.032h379.072c19.072 0 34.496-15.296 34.496-34.112 0-18.816-15.424-34.176-34.496-34.176H98.432C79.424 383.744 64 399.04 64 417.92c0 18.816 15.424 34.112 34.432 34.112z m0-204.864h206.784c19.008 0 34.432-15.296 34.432-34.176 0-18.816-15.424-34.176-34.432-34.176H98.432C79.424 178.88 64 194.17600000000004 64 212.99199999999996c0 18.88 15.424 34.176 34.432 34.176z"  horiz-adv-x="1024" />

    
    <glyph glyph-name="yejianmoshi" unicode="&#59000;" d="M939.838802 196.532064a487.71399 487.71399 0 0 0-12.110598-0.153536c-138.298955 0.623547-266.774696 64.053-353.469657 171.406478-93.967586 116.355742-118.755928 277.268458-73.822946 418.450143 6.88095 21.614206 15.720277 42.366726 25.9289 62.602235 10.255624 20.329511-2.008511 47.878379-27.053791 47.148296C354.347009 891.752455 216.010453 826.844036 121.76086 716.26002 24.807142 602.498734-15.375603 453.367609 5.282915 306.04759c19.922169-142.096638 105.119363-269.400486 223.148343-349.136161 124.552721-84.144372 285.553173-106.244255 429.16951-64.093734 132.668232 38.935651 245.893706 134.037529 309.294958 256.566072 10.587765 20.464247-2.259183 47.615174-27.056924 47.148297z m-367.140689-258.345845c-139.198241-18.389935-279.596576 29.065435-379.179218 127.81146-98.84316 98.009675-143.904611 237.189116-128.359805 374.67652 15.071663 133.307446 96.433574 254.842702 209.345708 325.394376 53.346166 33.333128 113.285009 54.505524 175.28563 63.069111-51.776331-137.653474-43.419549-291.960979 25.571692-423.67039 66.06151-126.110022 187.054687-219.811269 324.360354-255.626052 28.097214-7.329027 57.031046-11.966461 86.083947-14.303979-71.23789-105.883914-184.939641-180.418142-313.108308-197.351046zM731.802856 443.795067h38.973252v-38.973252c0-16.873369 13.677299-30.550668 30.550667-30.550667s30.550668 13.677299 30.550668 30.550667v38.973252h38.973251c16.873369 0 30.550668 13.677299 30.550668 30.550667s-13.677299 30.550668-30.550668 30.550668h-38.973251v38.973251c0 16.873369-13.677299 30.550668-30.550668 30.550668s-30.550668-13.677299-30.550667-30.550668v-38.973251h-38.973252c-16.873369 0-30.550668-13.677299-30.550667-30.550668s13.680432-30.550668 30.550667-30.550667zM1027.611653 762.668834h-38.973252V801.638952c0 16.873369-13.677299 30.550668-30.550667 30.550668s-30.550668-13.677299-30.550668-30.550668V762.665701h-38.973251c-16.873369 0-30.550668-13.677299-30.550668-30.550668s13.677299-30.550668 30.550668-30.550667h38.973251v-38.973252c0-16.873369 13.677299-30.550668 30.550668-30.550667s30.550668 13.677299 30.550667 30.550667V701.567499h38.973252c16.873369 0 30.550668 13.677299 30.550667 30.550668s-13.680432 30.550668-30.550667 30.550667z"  horiz-adv-x="1058" />

    
    <glyph glyph-name="gangqin" unicode="&#58922;" d="M1023.93856 312.384v-125.376c0-46.4-30.912-85.12-73.152-97.728v-92.48a43.904 43.904 0 0 0-43.904-43.904h-14.656a43.904 43.904 0 0 0-43.904 43.904v87.68H512.00256v-87.744a43.904 43.904 0 0 0-43.968-43.904h-14.592a43.904 43.904 0 0 0-43.904 43.904V84.48000000000002H204.80256v-87.744a43.904 43.904 0 0 0-43.904-43.904h-14.592a43.904 43.904 0 0 0-43.904 43.904V84.48000000000002A102.4 102.4 0 0 0 0.00256 187.00800000000004V303.93600000000004c0 1.664 0.192 3.392 0.512 4.928a22.656 22.656 0 0 0 8.96 21.12L717.37856 854.656a26.24 26.24 0 0 0 14.08 5.184c14.464-0.064 125.568-3.008 166.4-63.232 12.096-18.112 22.848-49.344 4.864-94.272-39.296-98.88-11.52-134.016 30.592-186.688 5.184-6.464 10.624-13.44 16-20.416 9.28-11.904 17.984-22.208 26.432-32 47.68-67.904 48.576-121.856 48.192-150.848z m-131.648-308.288a7.296 7.296 0 0 1 14.592 0V84.48000000000002h-14.656v-80.384z m-438.848 0a7.296 7.296 0 1 1 14.592 0V84.48000000000002h-14.592v-80.384z m-307.136 0c0-4.096 3.264-7.36 7.296-7.36a7.36 7.36 0 0 1 7.36 7.36V84.48000000000002h-14.656v-80.384z m804.48 416.896a771.328 771.328 0 0 0-43.904 58.496c-44.736 56-93.248 109.888-43.904 234.112 8.448 21.12 8.448 45.824 0 58.496-21.376 31.552-100.544 42.624-131.712 43.904L87.74656 333.18399999999997h599.744V633.088a21.952 21.952 0 1 0 43.904 0v-299.904h248.704c-0.064 30.272-10.688 64.128-29.312 87.808z m29.248-131.712H43.90656v-102.272c0-32.384 26.176-58.624 58.56-58.624H921.60256c32.32 0 58.496 26.24 58.496 58.624V289.28z m-73.088-131.648H855.81056a7.296 7.296 0 1 0 0 14.592H906.94656a29.248 29.248 0 0 1 29.248 29.248V223.48800000000006c0 3.968 3.328 7.36 7.296 7.36 4.032 0 7.296-3.392 7.296-7.36V201.47199999999998a43.84 43.84 0 0 0-43.84-43.84z m-80.448 0c-4.032 0-7.36 3.392-7.36 7.36a7.36 7.36 0 0 0 14.656 0 7.36 7.36 0 0 0-7.296-7.36zM731.39456 859.84h-0.448 0.448z"  horiz-adv-x="1024" />

    
    <glyph glyph-name="icon-p_xinfeng" unicode="&#58882;" d="M915.456 733.184h-805.888c-33.792 0-61.44-27.648-61.44-61.44v-576.512c0-33.792 27.648-61.44 61.44-61.44h804.864c33.792 0 60.416 26.624 62.464 61.44v576.512c0 33.792-27.648 61.44-61.44 61.44zM512 300.032l-393.216 392.192h785.408l-392.192-392.192zM914.432 74.752h-804.864c-11.264 0-20.48 9.216-20.48 20.48v569.344l408.576-407.552c4.096-4.096 9.216-6.144 14.336-6.144s10.24 2.048 14.336 6.144l409.6 409.6v-570.368c-1.024-12.288-10.24-21.504-21.504-21.504z"  horiz-adv-x="1024" />

    
    <glyph glyph-name="zhibo" unicode="&#58899;" d="M512-88.61538499999995C252.061538-88.61538499999995 39.384615 124.06153800000004 39.384615 384S252.061538 856.6153850000001 512 856.6153850000001s472.615385-212.676923 472.615385-472.615385-212.676923-472.615385-472.615385-472.615385z m0 905.846154C273.723077 817.230769 78.769231 622.276923 78.769231 384s194.953846-433.230769 433.230769-433.230769 433.230769 194.953846 433.230769 433.230769S750.276923 817.230769 512 817.230769zM602.584615 206.769231H309.169231c-29.538462 0-53.169231 23.630769-53.169231 51.2V510.030769c0 27.569231 23.630769 51.2 53.169231 51.2h293.415384c29.538462 0 53.169231-23.630769 53.169231-51.2v-3.938461l66.953846 37.415384c19.692308 13.784615 47.261538 11.815385 66.953846-1.96923l17.723077-13.784616v-287.507692l-15.753846-13.784616c-17.723077-15.753846-45.292308-15.753846-64.984615-3.938461l-68.923077 33.476923c0-25.6-25.6-49.230769-55.138462-49.230769zM309.169231 521.8461540000001c-5.907692 0-13.784615-3.938462-13.784616-11.815385v-252.061538c0-7.876923 7.876923-11.815385 13.784616-11.815385h293.415384c7.876923 0 13.784615 3.938462 13.784616 11.815385v63.015384l128-63.015384c5.907692-3.938462 13.784615-3.938462 19.692307 0l1.969231 1.969231V508.061538l-1.969231 1.969231c-5.907692 3.938462-13.784615 3.938462-19.692307 0l-1.969231-1.969231-126.030769-70.892307v72.861538c1.969231 7.876923-5.907692 11.815385-13.784616 11.815385H309.169231z"  horiz-adv-x="1024" />

    
    <glyph glyph-name="saomiaoerweima" unicode="&#58897;" d="M910.39 476.938c-11.868 0-21.461 9.594-21.461 21.462V756.884c0 17.749-14.444 32.192-32.193 32.192-11.396 0-243.976-0.257-257.775-0.686-10.645-0.601-20.84 6.846-22.664 17.856-1.953 11.696 5.924 22.75 17.599 24.724 5.966 1.008 260.287 1.03 262.84 1.03 41.422 0 75.116-33.695 75.116-75.116V498.4c0-11.868-9.593-21.462-21.462-21.462zM85.462 476.938C73.593 476.938 64 486.532 64 498.4V756.884C64 798.304 97.695 832 139.116 832c2.554 0 256.874-0.022 262.84-1.03 11.676-1.975 19.552-13.028 17.6-24.724-1.847-11.01-11.87-18.436-22.664-17.856-13.8 0.43-246.38 0.686-257.776 0.686-17.75 0-32.193-14.443-32.193-32.192V498.4c0-11.868-9.593-21.462-21.461-21.462zM856.736-77.728c-2.553 0-256.874 0.022-262.84 1.03-11.675 1.974-19.552 13.027-17.599 24.724 1.824 11.01 12.019 18.35 22.664 17.856 13.735-0.43 246.38-0.687 257.775-0.687 17.75 0 32.193 14.444 32.193 32.192V255.872c0 11.868 9.593 21.461 21.461 21.461 11.869 0 21.462-9.593 21.462-21.461v-258.485c0-41.42-33.694-75.115-75.116-75.115zM139.116-77.728C97.695-77.728 64-44.034 64-2.613V255.872c0 11.868 9.593 21.461 21.462 21.461 11.868 0 21.461-9.593 21.461-21.461v-258.485c0-17.748 14.444-32.192 32.193-32.192 11.396 0 244.04 0.258 257.776 0.687 10.816 0.472 20.817-6.846 22.663-17.856 1.953-11.697-5.923-22.75-17.598-24.724-5.967-1.008-260.287-1.03-262.841-1.03zM983.523 362.41H42.795c-11.868 0-21.462 9.593-21.462 21.462 0 11.868 9.594 21.461 21.462 21.461h940.728c11.868 0 21.462-9.593 21.462-21.461 0-11.869-9.594-21.462-21.462-21.462z"  horiz-adv-x="1024" />

    
    <glyph glyph-name="dianzan" unicode="&#58904;" d="M246.964706-128H84.329412C39.152941-128 0-91.858824 0-43.670588V393.035294c0 45.176471 39.152941 84.329412 84.329412 84.329412h162.635294V-128zM84.329412 417.129412c-12.047059 0-24.094118-12.047059-24.094118-24.094118v-439.717647c0-9.035294 9.035294-21.082353 24.094118-21.082353h102.4V417.129412H84.329412zM764.988235-128H183.717647V474.352941l21.082353 6.02353c87.341176 24.094118 195.764706 123.482353 237.929412 331.294117C451.764706 859.858824 493.929412 896 545.129412 896c57.223529 0 102.4-45.176471 102.4-99.388235v-237.929412c0-12.047059 15.058824-24.094118 27.105882-24.094118h240.941177c33.129412 0 66.258824-15.058824 87.341176-42.164706 21.082353-21.082353 27.105882-54.211765 18.070588-90.352941v-3.011764l-120.470588-421.647059c-18.070588-63.247059-75.294118-105.411765-135.529412-105.411765zM243.952941-67.764706h521.035294c36.141176 0 66.258824 21.082353 75.294118 57.22353l120.470588 421.647058c3.011765 15.058824 3.011765 27.105882-6.023529 39.152942-9.035294 15.058824-27.105882 21.082353-42.164706 21.082352h-240.941177c-45.176471 0-87.341176 39.152941-87.341176 84.329412v240.941177c0 21.082353-18.070588 39.152941-42.164706 39.152941-21.082353 0-39.152941-12.047059-42.164706-33.129412C451.764706 582.776471 340.329412 468.329412 240.941176 432.188235L243.952941-67.764706z"  horiz-adv-x="1025" />

    
    <glyph glyph-name="sanheng" unicode="&#58912;" d="M942.004009 354.91968399999996L82.058412 354.91968399999996c-15.809057 0-28.719088 13.003152-28.719088 29.063943 0 16.061814 12.911054 29.097712 28.719088 29.097712l859.945597 0c15.809057 0 28.656667-13.034874 28.656667-29.097712C970.660676 367.92283599999996 957.81409 354.91968399999996 942.004009 354.91968399999996L942.004009 354.91968399999996zM942.004009 354.91968399999996L82.058412 354.91968399999996c-15.809057 0-28.719088 13.003152-28.719088 29.063943 0 16.061814 12.911054 29.097712 28.719088 29.097712l859.945597 0c15.809057 0 28.656667-13.034874 28.656667-29.097712C970.660676 367.92283599999996 957.81409 354.91968399999996 942.004009 354.91968399999996L942.004009 354.91968399999996zM942.004009 32.431899000000044L82.058412 32.431899000000044c-15.809057 0-28.719088 13.005198-28.719088 29.065989 0 16.061814 12.911054 29.098735 28.719088 29.098735l859.945597 0c15.809057 0 28.656667-13.035898 28.656667-29.098735C970.660676 45.43709799999999 957.81409 32.431899000000044 942.004009 32.431899000000044L942.004009 32.431899000000044zM942.004009 32.431899000000044L82.058412 32.431899000000044c-15.809057 0-28.719088 13.005198-28.719088 29.065989 0 16.061814 12.911054 29.098735 28.719088 29.098735l859.945597 0c15.809057 0 28.656667-13.035898 28.656667-29.098735C970.660676 45.43709799999999 957.81409 32.431899000000044 942.004009 32.431899000000044L942.004009 32.431899000000044zM942.004009 677.405423L82.058412 677.405423c-15.809057 0-28.719088 13.004175-28.719088 29.064966 0 16.061814 12.911054 29.098735 28.719088 29.098735l859.945597 0c15.809057 0 28.656667-13.035898 28.656667-29.098735C970.660676 690.409598 957.81409 677.405423 942.004009 677.405423L942.004009 677.405423zM942.004009 677.405423L82.058412 677.405423c-15.809057 0-28.719088 13.004175-28.719088 29.064966 0 16.061814 12.911054 29.098735 28.719088 29.098735l859.945597 0c15.809057 0 28.656667-13.035898 28.656667-29.098735C970.660676 690.409598 957.81409 677.405423 942.004009 677.405423L942.004009 677.405423z"  horiz-adv-x="1024" />

    
    <glyph glyph-name="wo" unicode="&#59069;" d="M494.28987413 756.23270187c52.49025173 0 101.8865664-20.48400107 139.0138176-57.61125227s57.61125227-86.52356587 57.61125227-139.0138176-20.48400107-101.8865664-57.61125227-139.0138176-86.52356587-57.61125227-139.0138176-57.61125227-101.8865664 20.48400107-139.0138176 57.61125227-57.61125227 86.52356587-57.61125226 139.0138176 20.48400107 101.8865664 57.61125226 139.0138176 86.52356587 57.61125227 139.0138176 57.61125227m0 52.1701888c-137.41350507 0-248.79525973-111.38175467-248.79525973-248.79525867s111.38175467-248.79525973 248.79525973-248.79525973 248.79525973 111.38175467 248.79525974 248.79525973-111.38175467 248.79525973-248.79525974 248.79525867zM566.83737707 347.6195616c18.88368853 27.632064-28.9123136-6.40125013-40.5412512-5.0143136-18.6703136 2.34712533-52.3835648-3.20062507-51.636752 14.82956373-168.88631893-16.64325013-310.67401173-138.3736928-345.34745067-304.05938666v-0.32006294c-2.24043733-10.66875093-4.0541248-21.4441888-5.33437547-32.43300053-0.7468128-5.76112533-1.2802496-11.6289376-1.70700053-17.390064 0 0-0.32006293-4.8009376-0.42674987-7.36143787l-0.10668693-0.74681173c-1.17356267-14.08275093 9.6018752-26.56518827 24.111376-27.84543893 14.5095008-1.2802496 27.20531307 9.17512533 28.37887573 23.25787626l1.92037547 23.04450027c0 0.21337493 0 0.53343787 0.10668693 0.7468128 5.33437547 44.808752 19.63050027 87.27037867 42.24825174 125.9979424 21.87093867 37.44731413 50.78325227 70.09369067 85.77675306 96.76556587 34.99350187 26.7785632 74.3611904 46.30237653 117.036192 58.25137706 44.0619392 12.26906347 39.68775147 13.22925013 92.1780032 16.6432512 30.2992512 2.0270624 78.84206507 29.0190016 53.34375254 35.63362667zM476.47306133 346.125936c-23.79131307-3.414-47.79600213-7.14806293-71.80069013-5.4410624-9.7085632 0.6401248-18.13687573 3.414-25.17825173 10.45537493-6.61462507 6.61462507-10.45537493 15.7897504-10.45537494 25.17825067 0 1.3869376 0.106688 2.7738752 0.32006294 4.1608128-4.9076256-1.2802496-9.7085632-2.56050027-14.6161888-3.9474368 11.41556267-11.52225067 18.6703136-27.20531307 18.6703136-44.38200213 0-1.49362453-0.106688-2.98725013-0.21337494-4.48087574C402.85868373 335.88393599999995 433.69137173 340.15143573 465.1641856 340.15143573c4.37418773 0 8.74837547-0.106688 13.0158752-0.32006293-0.6401248 2.0270624-1.2802496 4.1608128-1.70699947 6.2945632zM905.7835776-4.235827200000017l-0.106688 0.7468128c-0.21337493 2.6671872-0.53343787 7.4681248-0.5334368 7.4681248-0.53343787 5.86781227-1.06687467 11.7356256-1.81368747 17.60343787-1.3869376 11.0955008-3.30731307 22.0843136-5.6544384 32.85975146 0 0.21337493 0 0.32006293-0.10668693 0.32006294C881.24545173 131.25730239999996 842.94463787 198.25705492999998 790.45438613 250.21386987000005c-2.56050027 3.20062507-4.48087467 4.9076256-6.82800106 6.934688l-19.9505632 18.03018773s-17.9235008 16.74993813-22.40437547 17.49675093c-10.13531307 4.26749973-22.29768853 1.70700053-29.87250133-7.14806293-9.38850027-10.88212587-8.10825067-27.41868907 2.88056213-36.70050133l16.6432512-14.93625067c-0.21337493 0 0.21337493 0 0 0 31.25943893-25.71168853 57.29118933-56.33100267 77.6685024-91.21781547 22.8311264-39.2610016 37.34062613-82.25606613 43.20843947-127.70494293 0-0.21337493 0.106688-0.53343787 0.106688-0.7468128l2.13374933-23.3645632c1.3869376-14.29612587 14.08275093-24.8581888 28.3788768-23.47125013 14.18943787 1.3869376 24.7515008 13.97606293 23.3645632 28.37887573z"  horiz-adv-x="1024" />

    
    <glyph glyph-name="refresh" unicode="&#58890;" d="M888.23 503.917L718.385 503.917c-21.6679 0-39.1942 17.5561-39.1942 39.1961 0 21.6382 17.5273 39.1942 39.1942 39.1942l68.1819 0c-61.5039 86.9065-162.641 143.715-277.223 143.715-187.607 0-339.692-152.086-339.692-339.69 0-187.606 152.086-339.691 339.692-339.691 187.606 0 339.691 152.086 339.691 339.691 0 21.6382 17.5264 39.1942 39.1933 39.1942 21.64 0 39.1971-17.5561 39.1971-39.1942 0-230.899-187.2-418.082-418.082-418.082-230.885 0-418.083 187.182-418.083 418.082 0 230.898 187.198 418.081 418.083 418.081 140.127 0 263.895-69.0866 339.691-174.935l0 70.4143c0 21.64 17.5264 39.1952 39.1933 39.1952 21.64 0 39.1971-17.5552 39.1971-39.1952l0-156.78C927.427 521.473 909.868 503.917 888.23 503.917Z"  horiz-adv-x="1024" />

    
    <glyph glyph-name="yanchu" unicode="&#58906;" d="M493.037037 25.87089900000001l376.730864 376.730865c12.280776 12.280776 19.143563 28.895944 19.143563 46.233509 0 17.337566-6.862787 33.591534-19.143563 45.872311l-58.875485 59.597883c-3.973192 3.973192-9.029982 6.140388-14.809171 6.140388-6.140388-0.722399-11.558377-2.889594-14.809171-6.140388-26.728748-26.728748-73.323457-26.367549-100.052205 0-13.003175 13.364374-20.22716 31.063139-20.22716 49.845503 0 18.782363 7.223986 36.481129 20.58836 49.845503 7.946384 7.946384 8.307584 21.310758 0 29.257143l-58.875485 59.597883c-24.561552 24.561552-67.544268 24.561552-92.10582 0L154.232099 366.48183400000005c-12.280776-12.280776-19.143563-28.534744-19.143563-46.233509 0-17.337566 6.862787-33.591534 19.143563-45.872311L213.107584 214.77813100000003c3.973192-3.973192 9.029982-6.140388 14.809171-6.140388 4.334392 0 10.47478 2.167196 14.809171 6.140388 12.641975 12.641975 31.063139 19.865961 49.845503 19.865961 19.143563 0 37.203527-7.223986 49.845502-20.227161 13.364374-13.364374 20.58836-31.063139 20.58836-49.845502 0-18.782363-7.223986-36.481129-20.58836-49.845503-8.307584-8.307584-8.307584-21.310758-0.361199-29.618342L400.931217 25.509699999999953c12.641975-12.641975 29.257143-19.504762 46.955908-19.143562 16.976367 0.361199 33.230335 7.223986 45.149912 19.504761zM385.038448 101.36155199999996l2.889594 4.334392c10.835979 17.698765 16.615168 37.925926 16.615168 58.875485 0 29.979541-11.558377 58.153086-32.869136 79.463844-21.671958 21.671958-50.206702 33.230335-80.547443 33.230335-20.58836-0.361199-40.454321-5.779189-57.430687-16.615167l-4.334392-2.889594L183.850441 303.633157c-4.334392 4.334392-6.862787 10.47478-6.862787 16.615168 0 6.501587 2.889594 12.280776 6.862787 16.615167L560.220106 713.5943560000001c9.029982 8.668783 24.561552 9.029982 33.230335 0l45.511111-46.233509-2.889594-4.334392c-10.835979-17.698765-16.615168-37.925926-16.976367-58.875485 0-29.979541 11.558377-58.153086 32.869136-79.463845 21.671958-21.671958 50.206702-33.230335 80.547442-32.869136 20.58836 0.361199 40.454321 5.779189 57.430688 16.615168l4.334392 2.889594 45.511111-46.233509c4.334392-4.334392 6.862787-10.11358 6.862786-16.253969 0-6.501587-2.528395-12.280776-6.862786-16.976366L463.779894 55.12804200000005c-9.029982-9.029982-24.200353-9.029982-33.230335 0L385.038448 101.36155199999996z m131.115344 415.379189c7.946384 7.946384 21.310758 8.307584 29.257143 0 8.307584-7.946384 8.307584-21.310758 0.361199-29.257143l-151.703704-154.954497c-3.973192-3.973192-9.029982-6.140388-14.447971-6.140388s-10.835979 2.167196-14.809172 5.779188c-8.307584 7.946384-8.307584 21.310758-0.361199 29.257143l151.703704 155.315697M462.335097 238.97848299999998v6.501588c-5.417989 0-10.835979 2.167196-14.809171 5.779188-8.307584 7.946384-8.307584 21.310758-0.361199 29.257143l151.703703 154.954497c3.973192 4.334392 9.029982 6.140388 14.809171 6.140388 5.417989 0 10.835979-2.167196 14.809171-5.779188 3.973192-3.973192 6.140388-9.029982 6.140388-14.447972s-2.167196-10.835979-5.779188-14.809171l-151.703704-154.954497c-3.611993-3.611993-9.029982-6.140388-14.809171-6.140388v-6.501588z"  horiz-adv-x="1024" />

    
    <glyph glyph-name="rili_fuzhi" unicode="&#58916;" d="M882.580687 791.63604H720.394343V823.696808c0 13.758061-9.307798 22.96501-23.166707 22.96501-13.864081 0-23.171879-9.206949-23.171878-22.96501v-32.060768H349.686949V823.696808c0 13.758061-9.307798 22.96501-23.171878 22.96501-13.858909 0-23.166707-9.206949-23.166707-22.96501v-32.060768H141.16202c-50.995717 0-92.677172-41.271596-92.677172-91.747555v-688.151273c0-50.474667 41.681455-91.742384 92.677172-91.742384h741.418667c50.990545 0 92.677172 41.267717 92.677172 91.742384V699.888485c0 50.47596-41.687919 91.747556-92.677172 91.747555zM141.16202 745.712485h162.186344v-105.505616c0-13.756768 9.307798-22.963717 23.166707-22.963717 13.864081 0 23.171879 9.206949 23.171878 22.963717v105.505616H674.055758v-105.505616c0-13.756768 9.307798-22.963717 23.171878-22.963717 13.858909 0 23.166707 9.206949 23.166707 22.963717v105.505616h162.186344c27.823838 0 46.338586-18.307879 46.338586-45.93002v-155.973819H94.823434V699.888485c0 27.516121 23.171879 45.824 46.338586 45.824zM882.580687-34.185051000000044M345.029818 342.00694899999996H252.353939c-13.858909 0-23.166707-9.206949-23.166707-22.961131 0-13.758061 9.307798-22.96501 23.166707-22.96501h92.675879c13.858909 0 23.171879 9.206949 23.171879 22.96501 0 13.752889-9.206949 22.961131-23.171879 22.961131z m231.691637 0h-92.677172c-13.858909 0-23.166707-9.206949-23.166707-22.961131 0-13.758061 9.307798-22.96501 23.166707-22.96501h92.677172c13.864081 0 23.171879 9.206949 23.171878 22.96501 0 13.752889-9.206949 22.961131-23.171878 22.961131z m231.698101 0h-92.682344c-13.858909 0-23.166707-9.206949-23.166707-22.961131 0-13.758061 9.307798-22.96501 23.166707-22.96501h92.682344c13.858909 0 23.166707 9.206949 23.166707 22.96501 0 13.752889-9.208242 22.961131-23.166707 22.961131zM345.029818 204.333253H252.353939c-13.858909 0-23.166707-9.206949-23.166707-22.959839 0-13.756768 9.307798-22.963717 23.166707-22.963717h92.675879c13.858909 0 23.171879 9.206949 23.171879 22.963717 0 13.752889-9.206949 22.959838-23.171879 22.959839z m231.691637 0h-92.677172c-13.858909 0-23.166707-9.206949-23.166707-22.959839 0-13.756768 9.307798-22.963717 23.166707-22.963717h92.677172c13.864081 0 23.171879 9.206949 23.171878 22.963717 0 13.752889-9.206949 22.959838-23.171878 22.959839z m0 0"  horiz-adv-x="1024" />

    
    <glyph glyph-name="ic_duoxuan" unicode="&#58940;" d="M896 387.776v-7.552A383.936 383.936 0 0 0 516.992 0h-8.768A383.808 383.808 0 0 0 128 379.008V384h0.256A31.232 31.232 0 0 0 128 390.592v0.512l0.064 3.392A384 384 0 0 0 508.288 768h8.704a382.016 382.016 0 0 0 199.68-59.008l1.536-0.96 1.728-1.088 0.064-0.064a30.08 30.08 0 0 0-33.344-49.92h-0.064a87.296 87.296 0 0 1-1.28 0.896h-0.128A322.56 322.56 0 0 1 512 708.096h-3.2c-111.36-1.152-209.28-58.304-266.688-144.768a323.648 323.648 0 0 1-54.08-175.488c0-1.28-0.128-2.56-0.256-3.776h0.192a323.264 323.264 0 0 1 47.296-168.576 324.928 324.928 0 0 1 183.36-141.76c28.544-8.576 58.88-13.376 90.24-13.632H512c32.384 0 63.744 4.736 93.312 13.632A324.608 324.608 0 0 1 773.12 192a322.56 322.56 0 0 1 62.912 188.8V384v3.2a323.84 323.84 0 0 1-4.8 52.992l-0.128 0.64-0.064 0.32a29.952 29.952 0 0 0 59.136 10.24l0.192-1.344c3.584-20.288 5.504-41.088 5.696-62.272z m0 290.944v-1.984a29.824 29.824 0 0 0-5.888-16.64l-53.12-71.424-38.912-52.416-86.784-116.736-26.368-35.52-124.8-167.744a59.904 59.904 0 0 0-48.128-24.32 59.776 59.776 0 0 0-40.64 15.872l-32.064 29.44-125.824 115.712-13.76 12.672-1.152 1.152a29.952 29.952 0 0 0 35.456 47.488L391.104 384l108.224-57.408 4.16 4.48L512 340.288 552.576 384l8.064 8.704 192.512 207.68 40.96 44.16 49.92 53.824a29.952 29.952 0 0 0 51.968-19.648z"  horiz-adv-x="1024" />

    
    <glyph glyph-name="yinyuered" unicode="&#58883;" d="M254.91992187-11.5078125C179.41388459-11.5078125 116.4921875 49.61612237999998 116.4921875 126.91992187000005s61.12393488 138.42773438 138.42773438 138.42773438c30.56196705 0 59.32617188-10.78657642 84.4948507-28.76420483l7.19105121-5.39328821V675.23757117c0 26.96644183 21.57315363 48.53959545 46.74183246 48.53959468l462.02503558 53.93288365h3.59552522C884.13689666 779.5078125 907.5078125 757.93465887 907.5078125 730.96821705v-519.55344446c0-37.75301825-14.38210242-71.91051129-41.34854425-97.07919014-25.16867884-25.16867884-61.12393488-39.55078125-97.07919012-39.55078124-75.50603728 0-138.42773438 61.12393488-138.42773438 138.42773437 0 75.50603728 61.12393488 138.42773438 138.42773438 138.42773438 30.56196705 0 61.12393488-10.78657642 84.4948507-28.76420484l7.19105121-5.3932882V558.38299041l-467.41832379-50.33735846v-381.12571007c-1.797763-77.3037995-62.92169709-138.42773438-138.42773438-138.42773438z m1e-8 228.3158733c-50.33735767 0-91.68590192-41.34854425-91.68590192-91.68590193s41.34854425-91.68590192 91.68590192-91.68590192 91.68590192 41.34854425 91.68590191 91.68590192c-1.797763 52.13512067-41.34854425 91.68590192-91.68590191 91.68590193z m514.16015625 86.2926137c-50.33735767 0-91.68590192-41.34854425-91.68590192-91.68590192s41.34854425-91.68590192 91.68590192-91.68590191 91.68590192 41.34854425 91.68590191 91.68590191-41.34854425 91.68590192-91.68590191 91.68590192z m-377.53018488 251.68678992l467.4183238 50.33735767V732.7659800399999l-462.02503558-53.93288367h-5.39328822v-124.04563195z"  horiz-adv-x="1024" />

    
    <glyph glyph-name="inturn" unicode="&#58909;" d="M962.60687773 116.06338535999998a29.1301418 29.1301418 0 0 1-40.66082226-1e-8 345.31355391 345.31355391 0 0 0-259.7437626-121.37558994H464.96695888a345.01011504 345.01011504 0 0 0 0 690.0202292h275.52258897v-100.74173994a10.92380273 10.92380273 0 0 1 16.38570498-9.71004727l206.94538125 121.37558994a10.92380273 10.92380273 0 0 1 0 18.8132168L756.87525283 832.17936592a10.92380273 10.92380273 0 0 1-16.38570498-9.71004727v-82.53540087H464.96695888a402.96695888 402.96695888 0 0 1 0-805.93391778h196.62845625a402.96695888 402.96695888 0 0 1 303.43897442 138.36817266 29.1301418 29.1301418 0 0 1-2.42751182 43.69521269z"  horiz-adv-x="1037" />

    
    <glyph glyph-name="iconfontzan" unicode="&#58928;" d="M128.12209707 720.88440747c43.53881387 41.09597653 101.54472107 66.53618773 161.29597866 70.56392106 47.50869547 3.67189547 95.90916907-6.37014933 138.31716054-27.93980693 32.26770987-16.0530816 60.38761813-39.48925013 83.92202346-66.65516373 25.46094933 29.36861547 56.3391456 54.51083947 91.9807648 70.42638826 25.18042773 12.56019627 52.84298667 19.14974293 80.5492064 23.23641814 66.30041813 7.6788896 135.43989653-10.47756373 188.64199467-50.9590112 62.31197973-45.8790464 102.43758933-120.5896768 105.5724544-197.98109654 4.20565227-85.08995733-24.01140267-169.82298453-72.4326144-239.31502613-32.90188693-48.12104213-74.3777152-89.7147552-118.37278613-127.67477653-60.68451307-51.7514592-127.48157653-95.52931733-193.48400747-140.0188512-28.53578027-18.71094933-55.781376-39.2491136-82.45392-60.50332054-28.138464 22.52256-57.09229973 43.99288853-87.23589867 63.7386048-70.9241248 47.78376-142.8218912 94.9344352-206.40331626 152.44042347C158.48509333 243.54562986999997 105.262256 306.28985493000005 74.22469653 380.66538667c-13.01754667 30.79633173-21.868736 63.34019733-26.43240853 96.4396512-4.0091776 31.8693024-5.0799648 64.432816 0.5566784 96.1634944C57.79394667 629.4450400000001 86.4083168 682.12975467 128.12209707 720.88440747zM248.89624213 743.38731947c-68.40269867-18.2765216-126.191392-71.5768576-150.0630784-138.2123744-17.64234453-46.17485013-16.43184213-97.31396373-6.90608853-145.1752224 13.0371936-64.7111552 46.33639573-123.86425707 88.7836832-173.85180907 63.56177813-74.51306453 143.7747936-132.11947307 224.56086187-186.4120064 35.68091307-24.38797867 72.2928992-47.5239776 106.3856416-74.134304 34.88737387 27.20302613 72.37258027 50.83785173 108.868864 75.8010656 59.82984853 40.3821184 119.144496 82.19304533 171.63601066 131.96010987 52.52535253 49.27260267 98.88466987 107.2959744 124.40347094 175.29917333 17.54301547 47.26856 25.54063147 98.62597867 19.72497706 148.84930133-9.0487552 73.32220907-57.50817067 140.07670187-124.18734826 171.72660694-44.767872 21.710464-97.05636373 28.05987413-145.59764267 16.80841813-35.08384853-7.61994773-68.22696213-24.0506976-95.51294507-47.36788907-24.0506976-19.2479808-40.62007147-45.52102613-59.33429546-69.57281493-9.98091947 13.19874027-19.94219093 26.3931136-29.86525974 39.62896533-27.6647424 33.9530272-65.30821973 60.0066752-107.35819093 72.58870294C333.96982613 754.24255253 289.77609707 754.77740053 248.89624213 743.38731947z"  horiz-adv-x="1024" />

    
    <glyph glyph-name="down-trangle-copy-copy-copy" unicode="&#58892;" d="M673.827 402.877l-285.857 285.857c-10.929 10.929-29.334 10.929-40.837 0-10.929-10.929-10.929-29.334 0-40.837l265.725-265.725-264.573-264.573c-10.929-10.929-10.929-29.334 0-40.837 10.929-10.929 29.334-10.929 40.837 0l284.703 284.703c11.502 12.077 11.502 29.908 0 41.41799999Z"  horiz-adv-x="1024" />

    
    <glyph glyph-name="xindong" unicode="&#59169;" d="M536.39473643 740.63684239C588.02631612 799.7052635699999 659.07894746 833.19473643 735.01052627 833.19473643c151.2 0 274.26315761-133.81578984 274.26315761-298.32631524 0-96.72631612-42.15789492-163.23157881-77.21052627-218.36842119-97.67368388-153.37894747-341.05263135-342.33157881-351.47368388-350.28947373a71.38421016 71.38421016 0 0 0-44.43157881-15.39473643c-16.43684238 0-31.31052627 5.21052627-44.52631611 15.48947373-10.27894746 7.86315762-253.56315762 196.72105253-351.47368389 350.05263135C107.56842119 366.99473643 62.94736865 436.43684238 62.94736865 534.8684211899999 62.94736865 699.37894747 186.01052627 833.19473643 337.21052627 833.19473643c75.31578984 0 146.74736865-33.34736865 199.18421016-92.55789404z m0.47368476-71.90526358c-47.13157881 53.28947373-86.87368388 107.52631612-171.52105254 117.09473731-140.68421016 15.96315761-255.31578984-101.08421016-255.31578984-249.15789493 0-88.57894747 41.68421016-156.22105254 72.75789492-200.74736865 88.57894747-126.85263135 266.92105253-280.27894746 276.15789492-287.38421015 11.88947373-9.18947373 57.17368388-50.30526357 77.3052627-50.9684212 20.17894746-0.61578984 53.66842119 32.68421016 66.55263222 44.00526269 12.83684239 11.36842119 181.42105253 146.93684239 274.87894659 278.14736866 33.15789492 52.2 82.27894746 105.72631612 85.97368476 223.15263134 3.69473643 117.47368388-104.4 256.5-248.49473731 243-105.20526357-15.39473643-131.82631612-63.94736865-178.24736777-117.14210507zM780.15263135 372.25263135l-112.12105254-112.12105254a27.85263135 27.85263135 0 0 0-39.55263135 0.14210507l-204.44210508 204.15789493-92.22631611-92.17894746a27.9 27.9 0 0 0-39.55263135 0 28.04210508 28.04210508 0 0 0 0 39.64736865l112.12105254 112.12105253a28.04210508 28.04210508 0 0 0 39.69473642 0l204.3-204.34736865 92.22631612 92.22631612a28.04210508 28.04210508 0 1 0 39.55263135-39.64736865z"  horiz-adv-x="1077" />

    
    <glyph glyph-name="huanfu" unicode="&#58962;" d="M842.287244-99.50254500000005H279.157062a30.836364 30.836364 0 0 0-30.789818 30.789818V332.672l-20.235637-20.235636a30.894545 30.894545 0 0 0-21.748363-9.018182 30.522182 30.522182 0 0 0-21.736728 9.018182L9.030516 488.052364a30.661818 30.661818 0 0 0 0 43.485091L336.023971 858.181818a31.301818 31.301818 0 0 0 20.061091 9.029818h0.325818a30.778182 30.778182 0 0 0 32.290909-28.928c5.352727-90.833455 80.779636-161.92 171.938909-161.92 90.821818 0 166.074182 70.586182 171.764364 161.070546 0.174545 4.352 1.000727 8.529455 3.002182 12.544 5.690182 11.694545 18.071273 18.734545 30.941091 17.221818a30.754909 30.754909 0 0 0 18.90909-9.216l326.81891-326.795636a30.685091 30.685091 0 0 0 0-43.485091L936.448698 312.09890900000005c-5.678545-5.678545-13.544727-9.029818-21.736727-9.029818s-15.883636 3.165091-21.736727 9.029818l-20.247273 20.247273v-401.419637c0.349091-16.698182-13.381818-30.429091-30.440727-30.42909z m-532.538182 61.393454h501.76V451.933091a30.813091 30.813091 0 0 0 30.789818 30.766545 30.813091 30.813091 0 0 0 30.789818-30.766545v-32.616727l41.960727-41.972364 132.119273 132.130909-264.925091 264.913455c-31.104-92.986182-119.086545-159.394909-221.602909-159.394909-102.353455 0-190.336 66.408727-221.614545 159.394909L74.263971 509.474909 206.39488 377.34400000000005l41.984 41.972364v32.616727a30.801455 30.801455 0 0 0 30.789818 30.766545 30.685091 30.685091 0 0 0 30.766546-30.766545v-490.042182h-0.186182z m0 0"  horiz-adv-x="1121" />

    
    <glyph glyph-name="paihangbang---" unicode="&#58938;" d="M159-32.700000000000045h-6.8c-44 0-80 36-80 80V305.4c0 44 36 80 80 80h6.8c44 0 80-36 80-80v-258.1c0-44-36-80-80-80zM874.2-32.700000000000045h-7.7c-44 0-80 36-80 80V430.8c0 44 36 80 80 80h7.7c44 0 80-36 80-80v-383.5c0-44-36-80-80-80zM523.3-32.700000000000045h-7.7c-44 0-80 36-80 80V712.5c0 44 36 80 80 80h7.7c44 0 80-36 80-80v-665.2c0-44-36-80-80-80zM96 515.5h1.5v-52H96z"  horiz-adv-x="1024" />

    
    <glyph glyph-name="erji1" unicode="&#58884;" d="M230.28772607-34.96551709000005L261.32220898-3.9310341799999833 124.06896582-3.9310341799999833 155.10344785-34.96551709000005 155.10344785 424.83284443 93.03448291 424.83284443 93.03448291 335.61823417999994C93.03448291 318.47835556999996 106.92910214 304.58375215 124.06896582 304.58375215L261.32220898 304.58375215 230.28772607 335.61823417999994 230.28772607-34.96551709000005ZM261.32220898 366.65271709L124.06896582 366.65271709 155.10344785 335.61823417999994 155.10344785 424.83284443C155.10344785 466.21214443 93.03448291 466.21214443 93.03448291 424.83284443L93.03448291-34.96551709000005C93.03448291-52.10538076 106.92910214-66 124.06896582-66L261.32220898-66C278.46207266-66 292.35669102-52.10538076 292.35669102-34.96551709000005L292.35669102 335.61823417999994C292.35669102 352.75809785 278.46207266 366.65271709 261.32220898 366.65271709ZM755.43460684-3.9310341799999833L786.46908974-34.96551709000005 786.46908974 335.61823417999994 755.43460684 304.58375215 892.68785 304.58375215C909.82771367 304.58375215 923.72233291 318.47835556999996 923.72233291 335.61823417999994L923.72233291 424.83284443 861.65336709 424.83284443 861.65336709-34.96551709000005 892.68785-3.9310341799999833 755.43460684-3.9310341799999833ZM923.72233291-34.96551709000005L923.72233291 424.83284443C923.72233291 466.21214443 861.65336709 466.21214443 861.65336709 424.83284443L861.65336709 335.61823417999994 892.68785 366.65271709 755.43460684 366.65271709C738.29472734 366.65271709 724.40012393 352.75809785 724.40012393 335.61823417999994L724.40012393-34.96551709000005C724.40012393-52.10538076 738.29472734-66 755.43460684-66L892.68785-66C909.82771367-66 923.72233291-52.10538076 923.72233291-34.96551709000005ZM93.0352124 417.97017393C93.0352124 376.7246795 154.83633418 376.52450683999996 155.10352607 417.76913291 156.36709443 612.81792393 314.49751367 770.55850342 509.0650376 770.55850342 703.79418974 770.55850342 861.65336709 612.69932607 861.65336709 417.97017393 861.65336709 376.72419786 923.45543633 376.52473974 923.72168076 417.76984658 925.20416709 647.4311636699999 739.09476582 834 509.0650376 834 279.29811026 834 93.0352124 647.7371021399999 93.0352124 417.97017393Z"  horiz-adv-x="1024" />

    
    <glyph glyph-name="jietu" unicode="&#59252;" d="M955.733333 35.413333h-95.146666v-95.146666h-95.146667v95.146666H290.133333c-69.973333 0-126.72 56.746667-126.72 126.72V637.44H68.266667V732.586667h95.146666V827.733333H258.56v-665.6c0-17.493333 14.08-31.573333 31.573333-31.573333H955.733333v-95.146667z m-190.293333 570.453334v-380.16h95.146667v380.16c0 69.973333-56.746667 126.72-126.72 126.72H353.706667v-95.146667H733.866667c17.493333 0 31.573333-14.08 31.573333-31.573333z"  horiz-adv-x="1024" />

    
    <glyph glyph-name="icon-test1" unicode="&#58910;" d="M841.8 382.9c0-0.1 0-0.1 0 0 0-106.1-86-192.1-192-192.1H393.7c-106 0-192 86-192 192s86 192 192 192h309.8v-77.1l186.8 107.8-186.8 107.9v-74H392.7c-141.4 0-256.1-114.6-256.1-256.1 0-141.4 114.6-256.1 256.1-256.1h256c141.3 0 255.9 114.4 256.1 255.7h-63zM542.7 269.5V508h-10.1c-4.1-3.6-9-7.2-14.6-11-5.6-3.7-11.6-7.3-18-10.7-6.3-3.4-12.8-6.5-19.4-9.3-6.6-2.8-12.8-5-18.6-6.6v-27c5.2 1.3 10.5 3.1 16 5.4 5.5 2.3 10.7 4.7 15.6 7.3 4.9 2.6 9.4 5.2 13.3 7.9 4 2.7 7 5 9 7.1v-201.6h26.8z"  horiz-adv-x="1024" />

    
    <glyph glyph-name="weibiaoti-" unicode="&#58894;" d="M0 523.6h116.4V-128H0zM907.6 523.6H1024V-128H907.6zM453.8 896h116.4v-1024H453.8z"  horiz-adv-x="1024" />

    
    <glyph glyph-name="FM" unicode="&#58886;" d="M822.9 386.7H595.2c-11 0-20 9-20 20.2 0 11 9 20.2 20 20.2h227.9c11 0 20-9.2 20-20.2-0.1-11.2-9.1-20.2-20.2-20.2zM769.2 271.70000000000005h-174c-11 0-20 9-20 20.2 0 11 9 20.3 20 20.3h173.9c11 0 20-9.2 20-20.3-0.1-11.2-8.9-20.2-19.9-20.2zM812.1 156.70000000000005H595.2c-11 0-20 9-20 20.2 0 11 9 20.3 20 20.3h216.9c11 0 20-9.2 20-20.3 0.1-11.2-8.9-20.2-20-20.2zM184.2 339zM477.6 343.9c-3.4 46.8-43 83.5-89.8 83.5-20.9 0-40.9-7.2-56.9-20.2-16 13-36 20.2-56.9 20.2-46.6 0-85-34.9-89.5-80.1-0.5-3.2-0.5-8.1-0.5-8.1 0-0.9 0.5-13.3 1.6-19.3 15.1-91.8 126.9-146.2 145.3-146.2 18.2 0 129.8 54.4 144.9 144.9 1.4 6.3 2 12.6 2 18.9 0.2 0.6 0.2 4.6-0.2 6.4z m-27.7-14.8c-12.1-71.8-98.8-117.4-119-125.8-20.2 8.1-107.1 54.2-119.2 127.1-0.5 2.3-0.9 10.3-1.1 13.3 0 0.2 0 1.6 0.2 3.6 2.9 28.8 26.8 50.6 55.8 50.6 16 0 31.3-7 41.8-18.9 5.6-6.3 13.7-9.9 22.3-9.9 8.5 0 16.6 3.6 22.3 9.9 10.6 11.9 25.9 18.9 41.8 18.9 29.2 0 53.8-22.7 56-53.1 0.2-1.1 0-2.7 0-2.9 0.7-3.8 0.2-7.9-0.9-12.8zM897.2 656.4H225.3L402 759c8.1 4.7 10.8 15.1 6.1 23-4.7 8.1-15.1 10.8-22.9 6.1L157.8 656.4H127c-35.8 0-65-29.2-65-65.2v-548.3c0-9 1.8-17.5 5.2-25.4 9.9-23.4 33.1-39.8 59.8-39.8h770c31.5 0 57.6 22.5 63.7 52.2 0.9 4.3 1.3 8.5 1.3 13V591.2c0.2 36-29 65.2-64.8 65.2z m24.5-192.8v-420.7c0-1.8-0.2-3.4-0.5-5-2.3-11.3-12.4-19.8-24.1-19.8H127.2c-11.9 0-21.8 8.5-24.1 19.8-0.2 1.6-0.5 3.4-0.5 5V591.2c0 13.7 11 25 24.7 25h769.9c13.5 0 24.7-11.3 24.7-25v-127.6h-0.2zM266.7 397.7c-29 0-53.1-21.8-55.8-50.6-0.2-2-0.2-3.4-0.2-3.6 0-2.9 0.7-11 1.1-13.3 12.1-72.9 99-119 119.2-127.1 20.2 8.1 106.9 54 119 125.8 1.1 5 1.4 8.8 1.4 12.8v2.9c-2.3 30.4-26.8 53.1-56 53.1-16 0-31.3-7-41.8-18.9-5.6-6.3-13.7-9.9-22.3-9.9-8.5 0-16.6 3.6-22.3 9.9-11 11.9-26.3 18.9-42.3 18.9z"  horiz-adv-x="1024" />

    
    <glyph glyph-name="paobu" unicode="&#58885;" d="M701.55038 668.470147C774.852915 668.470147 834.276128 719.398912 834.276128 782.235073s-59.423213 113.764927-132.725748 113.764927S568.824633 845.071235 568.824633 782.235073s59.423213-113.764927 132.725747-113.764926zM907.578662 679.2019720000001c-69.206997-94.576576-161.849569-105.53593-261.583487-47.78127-6.787974 3.943851-36.897758 20.136392-43.571967 24.0044-160.408546 92.908023-320.627485 56.503247-428.059497-90.329352-45.657657-62.456945 59.916195-121.652628 105.08087-59.916194 55.517284 75.843284 126.127382 97.799915 203.335846 73.757594-39.552273-66.931698-74.098889-133.48418-122.866121-228.022835-48.805153-94.576576-156.502617-170.078565-259.990779-110.996646C25.255814 282.50367300000005-42.093023 177.764097 32.385082 135.367701c141.258117-80.58349 306.937772-31.095747 391.503034 73.643829 2.919966-1.516866 6.029541-2.919966 9.404568-4.095537 69.093232-23.473497 159.650114-86.006284 187.257069-108.152524 27.606956-22.146239 75.009008-135.038968 103.146866-191.769744 34.129478-68.827781 144.405613-18.69537 110.124449 50.435784-31.854179 64.353027-85.43746 192.755707-127.227109 225.254554-33.48481 26.09009-98.558348 74.59187-153.734338 102.085061 37.352818 70.534254 76.222501 140.310076 117.139953 208.948249 130.412527-39.02137 254.378376 6.939661 342.659959 127.606326 45.695579 62.419023-59.916195 121.614706-105.042949 59.916194z"  horiz-adv-x="1024" />

    
    <glyph glyph-name="icon_gequxiangqing_s" unicode="&#58911;" d="M836.85564887 129.38562705000004c-1.20974117-95.56955895-97.72484493-88.58921283-139.30101019-61.37698732L295.15576481 328.83997745c-41.56226001 27.21222552-41.56226001 80.20445408 0 107.41668027L697.55463868 712.43919438c117.72033847 26.57259215 139.10633872-48.57041594 139.30101019-76.72818626 0.63963337-93.05274052 3.21207143-253.07230777 0-506.32538107zM790.42661367 651.06220706c-6.43804814 25.78000305-48.75118216 33.39998253-77.3817249 15.33729438l-355.96983865-245.49404335c-47.4441049-35.0268758-47.4441049-48.27840976 0-76.71428101l355.96983865-230.15674965c28.63054273-18.06268817 49.58548633-27.49032713 77.3817249 0V651.06220706zM203.93849359 58.95643844999995H185.2500773a13.90507192 13.90507192 0 0 0-13.90507191 13.9050719V695.11347501a13.90507192 13.90507192 0 0 0 13.90507191 13.90507189h18.68841629a13.90507192 13.90507192 0 0 0 13.90507191-13.9050719v-622.25196465a13.90507192 13.90507192 0 0 0-13.90507191-13.9050719z"  horiz-adv-x="1024" />

    
    <glyph glyph-name="icon_gequxiangqing_x" unicode="&#58913;" d="M804.61568066 86.91804058000002h-17.10414562a12.72629887 12.72629887 0 0 0-12.72629887 12.72629946V668.75170328a12.72629887 12.72629887 0 0 0 12.72629887 12.72629886H804.61568066a12.72629887 12.72629887 0 0 0 12.72629945-12.72629887v-569.10736322a12.72629887 12.72629887 0 0 0-12.72629944-12.72629948z m-100.58866695 249.51181772L335.74064797 83.83827647999999C227.99980107 59.53104536000001 208.42675309 128.25305988000002 208.24858518 153.99836286000004c-0.58540985 85.11348732-2.9397749 231.45319962 0 463.07184032C209.35577311 704.48715121 297.68901431 698.08582275 335.74064797 673.20590803L704.02701371 434.65143397c38.03890743-24.87991473 38.03890743-73.34166094-1e-8-98.22157567z m-56.67020916 84.18446791l-325.79325354 210.49298475c-26.20344986 16.51873576-45.38198213 25.14716689-70.82185364 0v-491.14605587c5.8922766-23.56910584 44.61840437-30.5431173 70.82185364-14.02438153l325.79325354 224.51736628c43.4221322 32.04482093 43.4221322 44.16025748 0 70.16008636z"  horiz-adv-x="1024" />

    
    <glyph glyph-name="leqi" unicode="&#58952;" d="M332.251429 358.363429h62.500571c12.617143-0.585143 22.564571-11.995429 22.564571-25.892572 0-13.897143-9.947429-25.307429-22.564571-25.856H332.251429v-101.668571c0-67.913143 21.906286-96.365714 71.314285-96.365715 45.165714 0 70.546286 30.354286 79.250286 96.329143v145.883429c0 2.413714 0.329143 4.827429 0.914286 7.131428-48.969143 46.153143-74.313143 104.082286-61.549715 160.329143 22.272 98.377143 149.833143 141.129143 283.172572 104.521143 133.302857-36.498286 227.730286-140.178286 205.421714-238.592-8.96-39.606857-35.035429-70.217143-71.68-90.221714-1.755429-72.594286-13.312-132.242286-32.036571-179.931429-12.690286-32.182857-25.892571-52.736-33.206857-60.050285-28.781714-41.764571-61.220571-74.605714-96.768-99.218286-65.718857-46.262857-144.457143-64.731429-221.622858-51.931429a165.522286 165.522286 0 0 0-17.664 3.693715c-158.866286 40.521143-245.467429 143.250286-254.646857 306.176V635.099429c0 13.897143 10.24 25.197714 22.893715 25.197714s22.893714-11.264 22.893714-25.197714l-0.036572-420.754286c7.789714-137.069714 78.994286-221.622857 219.611429-257.462857 2.084571-0.658286 6.692571-1.718857 13.458286-2.779429 66.56-10.971429 134.473143 4.937143 191.195428 44.763429 30.829714 21.394286 59.136 50.066286 86.966857 89.892571 5.376 5.705143 14.957714 20.553143 25.051429 46.336 14.628571 37.229714 24.429714 83.748571 27.465143 140.580572-48.164571-12.873143-106.057143-12.251429-165.083429 3.949714a362.678857 362.678857 0 0 0-99.035428 43.556571l-0.146286-122.002285c-12.032-93.257143-54.710857-144.347429-124.745143-144.347429-76.288 0-117.174857 53.028571-117.174857 148.114286v101.668571h-3.474286a23.113143 23.113143 0 0 0-21.174857 12.617143 28.16 28.16 0 0 0 0 26.477714 23.113143 23.113143 0 0 0 21.211429 12.653715h3.401143v34.523428h-3.437715c-12.617143 0.548571-22.601143 11.995429-22.601143 25.856 0 13.897143 9.984 25.344 22.601143 25.892572h3.437715v268.8L236.178286 779.556571a28.050286 28.050286 0 0 0 2.486857 36.425143 21.248 21.248 0 0 0 16.603428 6.144 21.942857 21.942857 0 0 0 15.579429-8.813714l61.403429-80.603429v-288.036571h62.500571a23.113143 23.113143 0 0 0 21.174857-12.617143 28.16 28.16 0 0 0 0-26.514286 23.113143 23.113143 0 0 0-21.211428-12.617142H332.288v-34.523429z m306.724571-28.525715c112.018286-30.72 212.992 3.108571 227.401143 66.56 14.372571 63.378286-60.342857 145.481143-172.361143 176.201143-112.054857 30.72-213.065143-3.145143-227.437714-66.56-14.372571-63.378286 60.342857-145.481143 172.361143-176.201143h0.036571z m16.091429 55.734857c-50.102857 13.750857-84.662857 51.712-77.202286 84.772572 7.497143 33.024 54.198857 48.676571 104.338286 34.962286 50.102857-13.750857 84.699429-51.712 77.238857-84.772572-7.533714-33.060571-54.235429-48.64-104.374857-34.962286z"  horiz-adv-x="1024" />

    
    <glyph glyph-name="pengyou" unicode="&#58955;" d="M106.345 9.743a29.455 29.455 0 0 0-29.41 29.425c0 74.722 23.613 145.664 68.292 205.161a346.308 346.308 0 0 0 76.605 74.451 338.522 338.522 0 0 0 78.336 41.442 219.934 219.934 0 0 0-64.573 66.214 215.612 215.612 0 0 0-33.024 115.034c0 119.808 97.461 217.254 217.269 217.254 119.793 0 217.254-97.46 217.254-217.254 0-73.336-36.021-140.198-96.798-180.646a343.913 343.913 0 0 0 77.04-40.93 341.986 341.986 0 0 0 76.59-74.586 338.839 338.839 0 0 0 68.427-205.161c0-16.219-13.192-29.425-29.41-29.425s-29.425 13.206-29.425 29.425c0 75.7-29.455 146.914-82.929 200.493-51.938 52.194-120.681 81.74-193.536 83.185l-0.798-0.361c-2.319-0.467-4.518-0.738-6.64-0.738-0.844 0-1.657 0.045-2.47 0.12-74.3-0.015-144.927-29.56-198.446-83.185-53.474-53.85-82.929-125.063-82.929-200.493a29.47 29.47 0 0 0-29.425-29.425z m313.6 690.161c-87.356 0-158.418-71.063-158.418-158.419s71.062-158.419 158.418-158.419S578.38 454.13 578.38 541.486s-71.077 158.418-158.434 158.418z m479.88-626.206a29.455 29.455 0 0 0-29.425 29.41c0 130.123-99.132 235.987-220.988 235.987a29.47 29.47 0 1 0 0 58.955c66.65 0 120.877 58.232 120.877 129.792 0 71.574-54.242 129.807-120.877 129.807-16.219 0-29.41 13.191-29.41 29.425s13.191 29.425 29.41 29.425c99.102 0 179.727-84.63 179.727-188.642 0-33.416-8.433-66.184-24.365-94.75a186.488 186.488 0 0 0-48.987-57.284c47.752-20.66 89.073-54.844 119.869-99.268 35.192-50.823 53.714-110.787 53.609-173.462a29.47 29.47 0 0 0-29.44-29.395z"  horiz-adv-x="1024" />

    
    <glyph glyph-name="yinyue" unicode="&#58895;" d="M237.78125-37.875C157.2414769-37.875 90.125 27.32386386999997 90.125 109.78125s65.19886387 147.65625 147.65625 147.65625c32.59943152 0 63.28125-11.50568152 90.12784075-30.68181848l7.67045463-5.75284076V694.65340925c0 28.76420462 23.01136387 51.77556848 49.85795462 51.77556765l492.82670462 57.52840923h3.8352269C908.9460231 805.875 933.875 782.86363613 933.875 754.09943152v-554.19034076c0-40.26988613-15.34090925-76.70454538-44.10511387-103.55113614-26.84659075-26.84659075-65.19886387-42.1875-103.55113613-42.1875-80.5397731 0-147.65625 65.19886387-147.65625 147.65625 0 80.5397731 65.19886387 147.65625 147.65625 147.65625 32.59943152 0 65.19886387-11.50568152 90.12784075-30.68181849l7.67045463-5.75284075V570.0085231l-498.57954538-53.69318235v-406.53409075c-1.91761387-82.45738613-67.1164769-147.65625-147.65625-147.65625z m0 243.53693152c-53.69318152 0-97.79829538-44.10511387-97.79829538-97.79829539s44.10511387-97.79829538 97.79829538-97.79829538 97.79829538 44.10511387 97.79829538 97.79829538c-1.91761387 55.61079538-44.10511387 97.79829538-97.79829538 97.79829539z m548.4375 92.04545461c-53.69318152 0-97.79829538-44.10511387-97.79829538-97.79829538s44.10511387-97.79829538 97.79829538-97.79829537 97.79829538 44.10511387 97.79829538 97.79829537-44.10511387 97.79829538-97.79829538 97.79829538z m-402.69886387 268.46590925l498.57954539 53.69318152V756.01704538l-492.82670462-57.52840925h-5.75284077v-132.31534075z"  horiz-adv-x="1024" />

    
    <glyph glyph-name="xindong1" unicode="&#59063;" d="M512 784c-220.9 0-400-179.1-400-400s179.1-400 400-400 400 179.1 400 400-179.1 400-400 400z m182-445L531.1 182.6c-5.1-4.9-12.1-7.7-19.4-7.7-7.3 0-14.2 2.8-19.4 7.7L329.5 339c-23.2 22.1-35.9 51.4-35.9 82.6 0 31.2 12.8 60.6 35.9 82.6 23.2 22.1 54 34.2 86.8 34.2s59.1-12.2 82.2-34.2l13.2-14.9 13.2 15.8c23.2 22.1 49.5 33.3 82.2 33.3 32.8 0 63.6-12.2 86.8-34.2 23.2-22.1 35.9-51.4 35.9-82.7 0.1-31-12.6-60.4-35.8-82.5z m0 0"  horiz-adv-x="1024" />

    
    <glyph glyph-name="jia" unicode="&#58902;" d="M512.5 1.4c-15.4 0-28 12.6-28 28V741.8c0 15.4 12.6 28 28 28s28-12.6 28-28v-712.4c0-15.4-12.6-28-28-28zM896.7 385.6c0-15.4-12.6-28-28-28H156.3c-15.4 0-28 12.6-28 28s12.6 28 28 28h712.4c15.4 0 28-12.6 28-28z"  horiz-adv-x="1024" />

    
    <glyph glyph-name="airudiantubiaohuizhi-zhuanqu_qinzichengchang" unicode="&#59033;" d="M593.6 594c-17.5 0-33.9 5.6-47.7 16.3-10.9 8.5-26.6 6.5-35.1-4.4s-6.5-26.6 4.4-35.1c22.6-17.5 49.7-26.8 78.4-26.8 70.5 0 127.9 57.4 127.9 127.9S664.1 799.7 593.6 799.7c-13.8 0-25-11.2-25-25s11.2-25 25-25c42.9 0 77.9-34.9 77.9-77.9S636.6 594 593.6 594zM353.6 371m-48.7 0a48.7 48.7 0 1 1 97.4 0 48.7 48.7 0 1 1-97.4 0ZM643.1 371m-48.7 0a48.7 48.7 0 1 1 97.4 0 48.7 48.7 0 1 1-97.4 0ZM299.7 237.60000000000002c29.8-80.7 111.7-135 203.8-135 46.2 0 90.3 13.4 127.5 38.7 36.7 25 63.5 59.5 77.5 99.5 3.6 10.4-1.9 21.8-12.3 25.5-10.4 3.6-21.8-1.9-25.5-12.3-23.2-66.6-90.4-111.4-167.2-111.4-75.4 0-142.2 43.7-166.2 108.8-3.8 10.4-15.3 15.7-25.7 11.8-10.4-3.8-15.7-15.3-11.9-25.6zM951.7 345.79999999999995c-15.4 27.9-40 46.6-69.3 52.6-0.2 0-0.3 0.1-0.5 0.1-5 35.5-14.9 70-29.7 102.7-17.2 38.1-40.5 72.8-69.3 103.3-9.5 10-25.3 10.5-35.3 1-10-9.5-10.5-25.3-1-35.3 50.6-53.7 81.8-123.6 87.9-197 1.1-13.4 12.6-23.6 26.1-22.9 4 0.2 7.9-0.1 11.8-0.9 31.9-6.5 51.2-44.1 43-83.8s-40.7-66.7-72.6-60.2c-3.5 0.7-6.9 1.8-10.2 3.3-12.2 5.6-26.6 0.5-32.6-11.4C743.8 87.29999999999995 632.2 19 508.7 19c-122.4 0-233.5 67.5-290.2 176.1-5.7 11-18.6 16.1-30.3 12.1-2-0.7-4-1.2-6-1.6-31.9-6.5-64.4 20.5-72.6 60.2-8.1 39.7 11.2 77.3 43 83.8 2.2 0.4 4.4 0.7 6.7 0.9 12.4 0.7 22.4 10.5 23.4 22.9C196.6 541.3 339.8 673 508.7 673c13.8 0 25 11.2 25 25s-11.2 25-25 25c-95.2 0-186.1-35.6-256-100.2-64.7-59.9-106-139.6-117.7-226.2-25.9-7.5-47.6-25.3-61.7-50.7-14.7-26.6-19.2-58.7-12.7-90.3 6.5-31.6 23.2-59.3 47.2-78 22.6-17.7 49.2-25.5 75.6-22.5 31.1-52.8 74.6-97.5 126.9-129.9 59.4-36.8 128-56.3 198.2-56.3 70.8 0 139.8 19.7 199.5 57.1 52.1 32.6 95.4 77.3 126.3 130.1 28.8-5.4 58.1 2.2 82.8 21.4 24 18.7 40.7 46.4 47.2 78 6.6 31.7 2.1 63.7-12.6 90.3z"  horiz-adv-x="1024" />

    
    <glyph glyph-name="zanting" unicode="&#58915;" d="M360.410074 620.126815m56.888889 0l0 0q56.888889 0 56.888889-56.888889l0-341.333333q0-56.888889-56.888889-56.888889l0 0q-56.888889 0-56.888889 56.888889l0 341.333333q0 56.888889 56.888889 56.888889ZM587.96563 620.126815m56.888889 0l0 0q56.888889 0 56.888888-56.888889l0-341.333333q0-56.888889-56.888888-56.888889l0 0q-56.888889 0-56.888889 56.888889l0 341.333333q0 56.888889 56.888889 56.888889ZM511.886222-94.056296c-268.136296 0-485.451852 217.315556-485.451852 485.451852 0 268.09837 217.315556 485.451852 485.451852 485.451851 268.09837 0 485.451852-217.353481 485.451852-485.451851 0-268.136296-217.353481-485.451852-485.451852-485.451852z m0 60.681481c234.571852 0 424.77037 190.160593 424.770371 424.770371 0 234.571852-190.198519 424.77037-424.770371 424.77037-234.609778 0-424.77037-190.198519-424.77037-424.77037 0-234.609778 190.160593-424.77037 424.77037-424.770371z"  horiz-adv-x="1024" />

    
    <glyph glyph-name="xiangyou" unicode="&#58907;" d="M753.2-32.89999999999998c0 8.29999999-3.2 16.6-9.5 22.9l-393.3 393.3 393.2 392.1c12.7 12.6 12.7 33.1 0.10000001 45.8-12.6 12.7-33.1 12.7-45.80000001 0.1l-416.2-415c-6.1-6.1-9.5-14.3-9.5-22.9 0-8.6 3.4-16.8 9.5-22.9L697.9-55.799999999999955c12.6-12.6 33.1-12.6 45.80000001 0 6.3 6.3 9.50000001 14.6 9.49999999 22.9z"  horiz-adv-x="1024" />

    
    <glyph glyph-name="zuijinbofang" unicode="&#58891;" d="M512.518 797.772C283.962 797.772 98 611.822 98 383.255s185.962-414.518 414.518-414.518c12.729 0 23.029 10.311 23.029 23.029s-10.3 23.029-23.029 23.029c-203.166 0-368.46 165.294-368.46 368.46s165.294 368.46 368.46 368.46 368.46-165.294 368.46-368.46c0-12.718 10.3-23.029 23.029-23.029s23.029 10.311 23.029 23.029c0 228.567-185.962 414.517-414.518 414.517zM650.69 199.024c-12.729 0-23.029-10.311-23.029-23.029v-184.23c0-12.718 10.3-23.029 23.029-23.029s23.029 10.311 23.029 23.029v184.23c0 12.718-10.3 23.029-23.029 23.029zM765.834 337.197c-12.729 0-23.029-10.311-23.029-23.029v-322.403c0-12.718 10.3-23.029 23.029-23.029s23.029 10.311 23.029 23.029V314.168c0 12.718-10.3 23.029-23.029 23.029zM880.978 199.024c-12.729 0-23.029-10.311-23.029-23.029v-184.23c0-12.718 10.3-23.029 23.029-23.029s23.029 10.311 23.029 23.029v184.23c0 12.718-10.3 23.029-23.029 23.029zM654.584 429.02l-212.51 113.32a46.024 46.024 0 0 1-21.67 5.417 46.057 46.057 0 0 1-46.053-46.817l3.854-233.589a46.061 46.061 0 0 1 46.052-45.298 46.034 46.034 0 0 1 23.001 6.154l208.656 120.269a46.06 46.06 0 0 1-1.33 80.544zM424.257 268.111L420.403 501.7l212.51-113.319-208.656-120.27z"  horiz-adv-x="1024" />

    
    <glyph glyph-name="bofangliebiao" unicode="&#58914;" d="M902.588 92.29H121.412C107.93 92.29 97 81.359 97 67.878s10.93-24.412 24.412-24.412h781.177c13.493 0 24.412 10.93 24.412 24.412-0.001 13.481-10.92 24.412-24.413 24.412zM902.588 351.7H121.412C107.93 351.7 97 340.77 97 327.289c0-13.481 10.93-24.412 24.412-24.412h781.177c13.493 0 24.412 10.93 24.412 24.412-0.001 13.481-10.92 24.411-24.413 24.411zM512 558.581h390.588c13.493 0 24.412 10.93 24.412 24.412s-10.919 24.412-24.412 24.412H512c-13.493 0-24.412-10.93-24.412-24.412s10.919-24.412 24.412-24.412zM109.206 439.788c3.779-2.181 7.986-3.266 12.206-3.266s8.427 1.085 12.206 3.266L340.76 559.379c7.557 4.363 12.206 12.42 12.206 21.146s-4.649 16.783-12.206 21.146L133.618 721.262a24.401 24.401 0 0 1-24.412 0A24.409 24.409 0 0 1 97 700.116v-239.183a24.407 24.407 0 0 1 12.206-21.145z"  horiz-adv-x="1024" />

    
    <glyph glyph-name="friend-active" unicode="&#58887;" d="M56.54577778-15.20746667000003a31.41866667 31.41866667 0 0 0-31.37066667 31.38666667c0 79.70346667 25.1872 155.37493333 72.8448 218.8384a369.3952 369.3952 0 0 0 81.712 79.4144 361.09013333 361.09013333 0 0 0 83.5584 44.2048 234.59626667 234.59626667 0 0 0-68.87786666 70.62826667 229.98613333 229.98613333 0 0 0-35.2256 122.70293333c0 127.7952 103.9584 231.7376 231.7536 231.7376 127.7792 0 231.7376-103.95733333 231.7376-231.7376 0-78.22506667-38.4224-149.54453333-103.2512-192.68906667a366.84053333 366.84053333 0 0 0 82.176-43.65866666 364.78506667 364.78506667 0 0 0 81.696-79.5584 361.42826667 361.42826667 0 0 0 72.9888-218.8384c0-17.30026667-14.07146667-31.38666667-31.37066667-31.38666667s-31.38666667 14.0864-31.38666667 31.38666667c0 80.74666667-31.41866667 156.70826667-88.4576 213.8592-55.40053333 55.6736-128.7264 87.18933333-206.4384 88.73066666l-0.8512-0.38506666c-2.4736-0.49813333-4.8192-0.7872-7.08266666-0.7872-0.90026667 0-1.76746667 0.048-2.63466667 0.128-79.25333333-0.016-154.5888-31.53066667-211.67573333-88.73066667-57.03893333-57.44-88.4576-133.40053333-88.4576-213.8592a31.43466667 31.43466667 0 0 0-31.38666667-31.38666667z m334.50666667 736.17173334c-93.17973333 0-168.9792-75.80053333-168.9792-168.98026667s75.79946667-168.98026667 168.9792-168.98026667S560.04977778 458.80533333 560.04977778 551.9850666699999s-75.81546667 168.9792-168.99626667 168.9792z m511.872-667.95306667a31.41866667 31.41866667 0 0 0-31.38666667 31.37066667c0 138.79786667-105.7408 251.71946667-235.72053333 251.71946666a31.43466667 31.43466667 0 1 0 0 62.88533334c71.09333333 0 128.93546667 62.11413333 128.93546666 138.4448 0 76.3456-57.85813333 138.4608-128.93546666 138.4608-17.30026667 0-31.37066667 14.0704-31.37066667 31.38666666s14.0704 31.38666667 31.37066667 31.38666667c105.7088 0 191.7088-90.272 191.7088-201.21813333 0-35.64373333-8.9952-70.59626667-25.98933334-101.06666667a198.92053333 198.92053333 0 0 0-52.2528-61.10293333c50.93546667-22.03733333 95.0112-58.50026667 127.86026667-105.88586667 37.53813333-54.2112 57.29493333-118.1728 57.18293333-185.02613333a31.43466667 31.43466667 0 0 0-31.40266666-31.35466667z"  horiz-adv-x="1024" />

    
    <glyph glyph-name="logo-dark" unicode="&#58888;" d="M832.73386667 456.92266667c-56.89386667 56.89386667-131.0688 90.20906667-210.6848 95.09546666-5.18826667 14.3744-9.8528 29.9968-13.81866667 47.408-5.7664 25.33973333-10.03733333 54.48746667-12.24746667 89.13493334-0.53973333 8.45333333-0.95466667 17.23733333-1.24053333 26.37226666-0.2752 8.85973333-0.4288 18.05546667-0.44906667 27.6-0.03306667 0.0032-0.06293333 0.0064-0.096 0.01386667 0.02453333 0.24106667 0.06506667 0.48 0.0928 0.7232 6.29226667 55.136 53.97866667 97.88373333 111.1328 96.24853333 40.27413333-1.15093333 75.41973333-24.58346667 93.18826667-58.46506666l53.72266667 10.3232c-21.1424 52.64426667-69.30453333 91.65226667-127.33973334 99.6128-93.27146667 12.7936-174.1472-54.57173333-183.51253333-142.96106667-0.07786667-0.7392-0.12693333-2.6432-0.15573333-3.3856l-0.00106667-7.12106667c0.0192-6.29653333 0.17066667-16.09813333 0.57493333-27.38133333 0.1952-5.49653333 0.44693333-10.912 0.7392-16.26773333 2.96-54.19626667 10.8544-101.2448 23.90933334-142.77333334 0.032-0.096 0.0608-0.1888 0.09173333-0.28586666-29.62026667-3.12746667-58.368-10.22933333-85.6256-21.0272l-0.0192-0.00213334-0.03626667-0.01813333c-40.91946667-16.2176-78.47466667-40.78186667-110.53546666-72.84373333l10.17386666 9.10293333c-43.39413333-42.3456-70.38506667-101.4272-70.38506666-166.704 0-31.7472 6.38933333-62.02453333 17.93813333-89.63306667 27.54666667-65.85386667 84.48533333-116.45866667 154.3296-135.33973333 18.36906667-5.73333333 37.89333333-8.82346667 58.12693333-8.82346667 10.784 0 21.36426667 0.8928 31.67786667 2.58026667 92.7712 15.184 163.79306667 95.8944 163.79306667 192.89386667 0 22.15786667-3.71306667 43.4656-10.5376 63.33653333-14.01813333 58.02133333-36.58026667 97.55306667-58.58346667 136.06506667-6.7072 11.744-13.34826667 23.37386667-19.73226667 35.45706666 10.87786667-1.83253333 21.54026667-4.30826667 31.94773334-7.38666666 113.36106667-33.54026667 196.31786667-138.60906667 196.31786666-262.70293334 0-63.87413333-21.9808-122.70933333-58.77013333-169.34613333-26.11626667-29.22026667-56.63893333-54.41386667-90.5184-74.53973333-57.12426667-33.9296-123.7664-53.45066667-194.88853333-53.45066667-29.22986667 0-57.70026667 3.30666667-85.07093334 9.54026667-170.27733333 38.78933333-297.7408 191.41866667-297.7408 373.26933333 0 189.43786667 138.32533333 347.15093333 319.2704 377.5072l-6.9824 52.6176c-89.40053333-14.46506667-171.82613333-56.34026667-237.19573333-121.53066667-81.632-81.40693333-127.81546667-192.27733333-128.08106667-307.56373333-0.26986667-117.1616 45.37706667-227.3312 128.43093334-309.9744 82.7008-82.2912 195.40266667-128.05546667 312.06293333-126.82986667 77.7824 0.816 152.3136 21.9008 217.5648 60.72533334 28.80746667 15.16586667 55.48266667 34.74453333 79.1584 58.42026666 8.56853333 8.56853333 16.5824 17.5424 24.06293333 26.85226667 46.44053333 57.7888 71.6832 129.09973333 71.6832 204.30186667 0 33.34293333-4.97173333 65.91573333-14.5408 96.89066666-15.49013333 50.14613333-43.04106667 96.096-81.20746666 134.2624ZM396.01706667 479.82293333c0.8224 0.6752 1.6608 1.33226667 2.49386666 1.9968-0.89066667-0.70613333-1.776-1.41973333-2.65706666-2.13973333l0.16106666 0.14293333ZM674.5888 309.49226667000005c3.54773333-15.07946667 6.43306667-31.5584 8.48426667-49.88266667-0.6688-69.67146667-51.59146667-127.53813333-118.18666667-139.01973333-7.1008-0.8544-14.3232-1.30666667-21.648-1.30666667-15.76426667 0-31.05706667 2.04373333-45.6384 5.86666667-77.24266667 20.256-134.39573333 90.66026667-134.39573333 174.16746666 0 23.88373333 4.68586667 46.69013333 13.16906666 67.56373334 10.76906667 26.4992 27.66506667 49.8784 48.9312 68.3552 3.74826667 3.16053333 7.57546667 6.22613333 11.4912 9.18293333 42.1248 31.82613333 93.69386667 51.7792 149.69173334 54.8352 4.71253333-10.31893333 9.5968-20.0576 14.56426666-29.424 5.2928-9.97973333 10.6784-19.54133333 16.0384-28.95253333 1.2896-2.26346667 2.57706667-4.51733333 3.86133334-6.76586667 21.13493333-36.99093333 41.3568-72.42346667 53.63733333-124.6208Z"  horiz-adv-x="1024" />

    
    <glyph glyph-name="shezhi" unicode="&#58929;" d="M937.562353 436.193882l-149.473882 293.165177a114.176 114.176 0 0 1-101.737412 62.373647H346.051765c-42.586353 0-81.618824-23.702588-101.25553-61.560471L92.16 437.007059a114.808471 114.808471 0 0 1 0-106.014118l152.606118-293.165176a114.176 114.176 0 0 1 101.255529-61.560471h340.329412c42.917647 0 82.221176 24.064 101.707294 62.373647l149.473882 293.225412a114.808471 114.808471 0 0 1 0 104.267294v0.060235z m-83.636706-431.284706A188.114824 188.114824 0 0 0 686.381176-97.882353H346.051765a188.084706 188.084706 0 0 0-166.79153 101.406118L26.654118 296.688941a189.108706 189.108706 0 0 0 0 174.622118l152.606117 293.225412A188.084706 188.084706 0 0 0 346.051765 865.882353h340.329411a188.235294 188.235294 0 0 0 167.544471-102.791529l149.473882-293.225412a189.078588 189.078588 0 0 0 0-171.730824l-149.473882-293.225412zM519.830588 165.285647a214.076235 214.076235 0 0 0-185.46447 107.399529 215.250824 215.250824 0 0 0 0 214.738824A214.076235 214.076235 0 0 0 519.830588 594.823529c118.302118 0 214.196706-96.165647 214.196706-214.738823 0-118.663529-95.894588-214.799059-214.196706-214.799059z m0 74.089412c50.145882 0 96.496941 26.804706 121.554824 70.324706a141.040941 141.040941 0 0 1 0 140.709647 140.257882 140.257882 0 0 1-121.524706 70.354823 140.528941 140.528941 0 0 1-140.348235-140.709647 140.528941 140.528941 0 0 1 140.348235-140.709647z"  horiz-adv-x="1054" />

    
    <glyph glyph-name="dian1" unicode="&#58903;" d="M512 9.869999989999997m0-73.19999999a73.2 73.2 0 1 1 0 146.4 73.2 73.2 0 1 1 0-146.4ZM512 384m0-73.2a73.2 73.2 0 1 1 0 146.4 73.2 73.2 0 1 1 0-146.4ZM512 758.13000001m0-73.20000001a73.2 73.2 0 1 1 0 146.4 73.2 73.2 0 1 1 0-146.4Z"  horiz-adv-x="1024" />

    
    <glyph glyph-name="youxi1" unicode="&#58889;" d="M864.03 856.75q-5.24 4.2-45.09 25.7-39.84 21.49-81.77 8.9-12.59-4.19-28.84-12.58T674.26 859.9q-33.55-19.92-72.87-38.79-39.32-18.88-76.02-14.67h-19.93q-14.68 0-65.53 9.44-50.85 9.43-134.73 60.81-14.68 9.43-31.98 13.1t-34.07 1.57q-37.75-5.24-95.94-44.55Q85 807.5 51.45 689.01q-28.31-103.8-40.37-194.5Q-0.97 403.82 0.07 329.38q1.04-74.44 13.11-129.49 12.06-55.04 30.93-86.5 11.53-18.87 25.68-30.93 14.16-12.06 30.94-16.25h16.77q51.38 0 104.33 48.23 52.95 48.23 86.5 89.12 19.92 25.16 45.08 41.94 25.17 16.78 54.52 24.12 19.92 5.24 40.37 6.81 20.44 1.57 40.38 0.52h68.15q19.92 0 43.51-1.05 23.59-1.04 41.41-6.28 18.88-6.3 43-32.51 24.12-26.21 47.17-53.47 24.12-27.26 49.28-54 25.17-26.74 49.28-41.41 32.5-17.83 61.34-21.5 28.83-3.67 52.94 9.97 32.51 15.72 51.38 59.23 18.87 43.52 24.12 111.67 5.24 65 3.14 153.07t-18.88 175.62q-16.77 87.54-50.32 163.04-33.55 75.5-90.17 117.43z m110.09-604.97q-4.19-52.42-16.25-86.49-12.06-34.08-33.03-44.57-15.72-9.44-34.6-3.67-18.88 5.77-33.55 13.11-19.92 10.48-41.42 35.12-21.5 24.64-43.5 49.8-29.36 34.6-57.67 63.96-28.31 29.36-57.67 36.7-23.06 5.24-49.27 6.29-26.21 1.05-48.24 1.05h-66.06q-23.07 1.05-47.19-1.58-24.12-2.63-47.18-8.91-36.7-8.38-68.15-29.88-31.46-21.5-56.62-52.96-47.18-58.71-91.22-90.69-44.04-31.98-67.1-25.69-6.29 1.05-12.58 6.81-6.3 5.77-12.59 15.21-16.77 28.31-26.73 80.74-9.96 52.42-9.96 122.14T65.6 492.92q12.05 84.93 37.21 179.29 25.17 94.37 68.68 128.44Q215 834.72 251.7 839.96h7.34q7.34 0 13.1-1.57 5.77-1.58 11.01-5.77 90.17-56.62 148.36-68.16 58.19-11.53 79.16-9.43h11.54q48.23-4.19 94.36 17.3 46.13 21.49 83.88 43.5 16.77 9.44 30.92 17.3 14.15 7.87 22.55 8.91 22.02 6.29 48.23-6.3 26.21-12.58 37.75-19.92 49.28-36.69 77.59-107.99 28.3-71.3 42.46-153.08 14.16-81.78 15.73-163.56 1.58-81.78-1.57-139.45zM378.59 558.99h-73.4v76.54q0 12.58-8.38 20.97-8.38 8.38-20.98 8.38h-2.09q-12.58 0-20.97-8.38-8.39-8.38-8.39-20.97v-76.54h-73.39q-12.59 0-20.98-7.87-8.38-7.87-8.38-20.44v-5.25q0-12.58 8.38-20.96 8.39-8.39 20.98-8.39h73.39v-75.49q0-12.59 8.39-20.97 8.39-8.38 20.97-8.38h2.09q12.59 0 20.98 8.38 8.38 8.38 8.38 20.97v75.49h73.4q12.58 0 20.97 8.39 8.38 8.38 8.38 20.96v5.25q0 10.48-8.38 19.4-8.38 8.91-20.97 8.91z m415.19 63.95q0-18.87-13.63-32.5-13.63-13.63-33.55-13.63-18.87 0-32.5 13.63-13.63 13.63-13.63 32.5 0 18.88 13.63 32.51 13.63 13.63 32.5 13.63 19.92 0 33.55-13.63 13.63-13.63 13.63-32.51z m-97.51-97.51q0-18.87-13.63-32.5-13.63-13.63-33.55-13.63-18.87 0-32.5 13.63-13.63 13.63-13.63 32.5 0 18.88 13.63 32.51 13.63 13.63 32.5 13.63 19.92 0 33.55-13.63 13.63-13.63 13.63-32.51z m97.51-97.5q0-19.93-13.63-33.04t-33.55-13.11q-18.87 0-32.5 13.11-13.63 13.11-13.63 33.04 0 18.87 13.63 32.5 13.63 13.63 32.5 13.63 19.92 0 33.55-13.63 13.63-13.63 13.63-32.5z m97.51 97.5q0-18.87-13.63-32.5-13.63-13.63-32.5-13.63-19.92 0-33.55 13.63-13.63 13.63-13.63 32.5 0 18.88 13.63 32.51 13.63 13.63 33.55 13.63 18.87 0 32.5-13.63 13.63-13.63 13.63-32.51z"  horiz-adv-x="1024" />

    
    <glyph glyph-name="shizhong" unicode="&#58925;" d="M511.914 832.01c-247.012 0-447.925-200.912-447.925-447.924s200.913-447.925 447.925-447.925 447.925 200.913 447.925 447.925S758.926 832.011 511.914 832.011z m0-831.687c-211.577 0-383.763 172.186-383.763 383.763 0 211.577 172.014 383.763 383.763 383.763s383.763-172.014 383.763-383.763-172.186-383.763-383.763-383.763zM672.06 384.086H512.085v223.79c0 17.718-14.277 32.167-31.995 32.167-17.717 0-31.994-14.45-31.994-32.167V351.92c0-17.717 14.277-31.994 31.994-31.994H672.06c17.718 0 32.167 14.277 32.167 31.994-0.172 17.89-14.621 32.167-32.167 32.167z"  horiz-adv-x="1024" />

    
    <glyph glyph-name="bottom" unicode="&#58893;" d="M530.877 222.173l285.857 285.857c10.929 10.929 10.929 29.334 0 40.837-10.929 10.929-29.334 10.929-40.837 0l-265.725-265.725-264.573 264.573c-10.929 10.929-29.334 10.929-40.837 0-10.929-10.929-10.929-29.334 0-40.837l284.703-284.703c12.077-11.502 29.908-11.502 41.41799999 0Z"  horiz-adv-x="1024" />

    
    <glyph glyph-name="zaixiantinggemianliuliang" unicode="&#58967;" d="M230.14 344.8c-16.11 0-29.17-13.06-29.17-29.17v-213.9c0-16.11 13.06-29.17 29.17-29.17s29.17 13.06 29.17 29.17v213.9c0 16.11-13.06 29.17-29.17 29.17zM346.81 344.8c-16.11 0-29.17-13.06-29.17-29.17v-213.9c0-16.11 13.06-29.17 29.17-29.17s29.17 13.06 29.17 29.17v213.9c0 16.11-13.06 29.17-29.17 29.17zM463.49 344.8c-16.11 0-29.17-13.06-29.17-29.17v-213.9c0-16.11 13.06-29.17 29.17-29.17s29.17 13.06 29.17 29.17v213.9c-0.01 16.11-13.07 29.17-29.17 29.17zM847.72 817.59c-15.23 9.56-32.89 14.38-50.88 14.38H226.8c-17.77 0-35.21-4.69-50.31-14.05-35.63-22.11-96.07-69.88-111.64-161.98v-593.76c0-69.44 56.29-125.73 125.73-125.73h643.05c69.44 0 125.73 56.29 125.73 125.73V655.93c-15.27 91.33-75.87 139.21-111.64 161.66z m-643.86-54.06c9.65 6.61 21.09 10.1 32.79 10.1h550.01a58.15 58.15 0 0 0 33.21-10.39c28.23-19.62 66.73-48 79.65-107.3H124.74c13.35 59.92 51.62 88.74 79.12 107.59z m697.15-701.36c0-37.16-30.23-67.4-67.4-67.4H190.57c-37.15 0-67.39 30.23-67.39 67.4V597.59h777.83v-535.42z"  horiz-adv-x="1024" />

    
    <glyph glyph-name="dian" unicode="&#58898;" d="M950.612185 749.761816a73.119092 73.119092 0 1 1 0 146.238184 73.119092 73.119092 0 0 1 0-146.238184z m0-584.978331a73.119092 73.119092 0 1 1 0 146.238184 73.119092 73.119092 0 0 1 0-146.238184zM658.110223 749.761816a73.119092 73.119092 0 1 1 0 146.238184 73.119092 73.119092 0 0 1 0-146.238184z m0-292.501962a73.119092 73.119092 0 1 1 0 146.238184 73.119092 73.119092 0 0 1 0-146.238184z m0-292.476369a73.119092 73.119092 0 1 1 0 146.238184 73.119092 73.119092 0 0 1 0-146.238184z m0-292.501962a73.119092 73.119092 0 1 1 0 146.238184 73.119092 73.119092 0 0 1 0-146.238184zM365.633854 749.761816a73.119092 73.119092 0 1 1 0 146.238184 73.119092 73.119092 0 0 1 0-146.238184z m0-292.501962a73.119092 73.119092 0 1 1 0 146.238184 73.119092 73.119092 0 0 1 0-146.238184z m0-292.476369a73.119092 73.119092 0 1 1 0 146.238184 73.119092 73.119092 0 0 1 0-146.238184z m0-292.501962a73.119092 73.119092 0 1 1 0 146.238184 73.119092 73.119092 0 0 1 0-146.238184zM73.131892 749.761816a73.119092 73.119092 0 1 1 0 146.238184 73.119092 73.119092 0 0 1 0-146.238184z m0-292.501962a73.119092 73.119092 0 1 1 0 146.238184 73.119092 73.119092 0 0 1 0-146.238184z m0-292.476369a73.119092 73.119092 0 1 1 0 146.238184 73.119092 73.119092 0 0 1 0-146.238184z m0-292.501962a73.119092 73.119092 0 1 1 0 146.238184 73.119092 73.119092 0 0 1 0-146.238184z"  horiz-adv-x="1026" />

    
    <glyph glyph-name="shipin-copy" unicode="&#59125;" d="M512.126-64.12599999999998c-247.414 0-447.998 200.584-447.998 447.996 0 247.416 200.584 448.002 447.998 448.002 247.416 0 448.002-200.586 448.002-448.002-0.001-247.414-200.587-447.996-448.002-447.996z m0 851.19c-222.677 0-403.192-180.516-403.192-403.194 0-222.68 180.517-403.192 403.192-403.192 222.679 0 403.194 180.514 403.194 403.192S734.804 787.064 512.126 787.064z m169.672-416.962c-12.631-7.317-219.04-124.129-233.975-132.249-10.96-5.947-25.295 0.624-25.295 14.154V516.419c0 12.304 12.991 21.445 25.833 14.242 10.276-5.763 215.877-122.002 233.437-131.914 11.501-6.54 11.32-22.102 0-28.645z"  horiz-adv-x="1024" />

    


  </font>
</defs>
</svg>
